<svg width="40" height="40" fill="none" xmlns="http://www.w3.org/2000/svg"><path d="M40 26H0v14h40V26z" fill="#007C30"/><path d="M40 0H0v26.016h40V0z" fill="#CE1720"/><path d="M6.72.04H.03v40h6.69v-40z" fill="#CE1720"/><path d="M.03 28.239h.297v.617l.295.034c0 .14.007.272-.001.402-.012.176.03.266.173.242.033-.005.067.012.11.02v.593c.018.02.025.034.033.035.266.037.266.037.266.412v.204c.023.019.03.03.04.032.248.032.248.032.248.382 0 .33.004.333.272.267v-.594c.023-.02.03-.033.04-.034.243-.039.242-.038.244-.367 0-.092.006-.183.01-.283l.28-.02v-.63l.292-.036v-.627l.282-.025v-.626l.296-.018c0-.141.008-.279-.002-.414-.015-.19.028-.278.18-.235.036.01.076.001.129.001v.643l.296.025v.606c.284.07.29.07.283.45-.003.177.032.266.175.24.033-.006.068.01.117.017v.628l.294.022v.586c.024.025.031.038.04.04.246.04.246.04.247.383 0 .091.006.183.01.284h.262v-.603c.023-.025.03-.038.04-.04.246-.046.245-.046.247-.383 0-.085.005-.17.008-.269l.278-.017v-.598c.026-.024.033-.037.042-.038.258-.05.258-.05.258-.411v-.25l.275-.021v-.625l.313-.022v-.475-.48c0-.291 0-.286-.218-.337-.034-.008-.08-.088-.083-.14-.01-.156-.004-.316-.004-.487l-.283-.027v-.303-.319l-.291-.041v-.625h-.267c0 .13-.008.268.001.404.011.174-.025.27-.17.243-.033-.006-.069.007-.123.014v.629l-.28.019v.618c.148 0 .296.006.443-.003.098-.005.132.042.13.172-.012.634.07.504-.381.518-.125.004-.25-.008-.375.003-.115.01-.15-.057-.144-.2.006-.145.001-.291.001-.457l-.283-.02v-.319-.293c-.104-.025-.254-.015-.272-.074-.041-.14-.022-.313-.022-.472 0-.14.003-.14.292-.192v-.616l.285-.02c0-.134.008-.271-.002-.406-.013-.184.03-.28.18-.252.029.006.06-.006.11-.012v-.624l.298-.024v-.603c.025-.018.034-.028.042-.03.241-.023.241-.023.241-.348 0-.046.004-.094 0-.14-.016-.178.065-.183.166-.188.11-.005.162.04.145.192-.002.02 0 .04 0 .06 0 .383 0 .383.292.439v.595c.022.016.03.026.04.027.254.021.254.021.255.367v.242c.021.022.029.034.037.036.245.04.245.04.245.387v.302l-.269.016v.605l.129.015.125.012c.005.052.014.096.014.14.007 2.172.016 4.344.02 6.516.004 2.066.004 4.132.004 6.198 0 .526-.004 1.052-.007 1.579h-1.2l.003-.22c0-.402 0-.402.296-.488v-.606l.298-.028v-.62c.275-.035.275-.035.276-.389v-.02c-.02-.194.021-.306.192-.276.033.005.103-.052.105-.085.011-.175.005-.352.005-.542h-.302v-.309-.32l-.282-.027v-.273c0-.353 0-.353-.256-.389-.008 0-.016-.013-.042-.036v-.588c-.289-.041-.289-.041-.29-.296 0-.338 0-.337-.246-.384-.008-.002-.016-.015-.039-.04V33.5h-.273v.3c0 .33 0 .33-.244.368-.009.001-.016.013-.032.027-.002.052-.006.111-.006.17-.004.402-.004.402-.297.467v.6c-.29.066-.29.066-.29.34 0 .326 0 .326-.247.36-.009.001-.016.015-.04.038v.589l-.282.019v.606c.043.005.078.017.112.011.138-.025.19.05.176.235-.01.136-.002.274-.002.42l.287.029v.623l.288.023v.623c.053.008.087.021.12.016.139-.023.19.052.176.236-.01.145-.003.293-.004.44H3.51v-1.263c-.212-.083-.278-.057-.279.108-.001.385.006.77.01 1.154h-1.2l.005-.26c0-.369 0-.369.262-.43.004-.002.007-.009.028-.033v-.214c0-.366 0-.366.262-.398.009-.001.016-.014.041-.037v-.59c.276-.034.276-.034.276-.33 0-.33 0-.33.251-.358.009-.001.017-.012.029-.022v-.602h-.28v-.274c0-.34 0-.34-.247-.38-.009 0-.016-.014-.036-.035v-.284-.317l-.296-.034v-.311-.307c-.29-.037-.29-.037-.29-.4v-.04c.017-.167-.025-.255-.163-.227-.104.021-.126-.055-.122-.177.006-.158.001-.316.001-.47-.271-.043-.271-.043-.271.282 0 .34 0 .34-.24.373-.013.002-.025.017-.048.033v.253c0 .343 0 .343-.257.363-.009 0-.017.011-.041.028v.604c-.05.005-.085.018-.118.012-.136-.025-.184.056-.166.227.004.04 0 .08 0 .12 0 .3 0 .3-.228.322-.018.002-.036.016-.067.031v.602H.03v-1.32l.074-.006c.203-.004.203-.004.204-.284 0-.327 0-.327-.278-.35v-2c.045.004.09.016.134.009.144-.025.184.063.172.24-.01.135-.002.273-.002.415l.288.016v.354c0 .315.024.337.278.246v-.6l.277-.02c0-.146.007-.284-.001-.42-.01-.166.024-.25.164-.236.04.004.116-.062.12-.104.015-.163.006-.328.006-.492-.05-.01-.08-.027-.108-.02-.166.036-.194-.082-.182-.266.008-.128.002-.257.002-.385l-.286-.02v-.615c-.269-.055-.269-.055-.27.282v.334l-.292.022v.629l-.3.031v-2l.278-.02v-.231c.001-.373.001-.373-.277-.39v-1.32zm4.624 5.222v-.239c0-.364 0-.364.263-.43.004-.002.008-.008.018-.02v-.567c-.042-.008-.078-.024-.11-.018-.142.024-.185-.062-.173-.24.009-.135.002-.272.002-.41l-.288-.02v-.628h-.269v.626l-.275.022c-.003.064-.009.115-.01.167-.001.133.033.299-.013.39-.044.083-.175.086-.272.126v.572l.29.04v.63l.286.018v.624h.273v-.625l.278-.018zm.898-1.925v.252c0 .36 0 .36-.259.411-.008.002-.016.015-.024.023v.571c.045.006.08.02.114.014.144-.026.183.067.17.242-.008.136-.001.274-.001.413l.287.019v.62h.28v-.622l.274-.019c0-.148.008-.287-.002-.424-.012-.173.033-.252.167-.227.116.022.15-.06.141-.2a1.232 1.232 0 010-.199c.017-.175-.037-.25-.168-.225-.118.021-.145-.062-.14-.201.007-.15.002-.299.002-.447l-.284-.02v-.627h-.275v.628c-.099.006-.178.01-.282.018zm-3.477.627l-.286.04v.592c.046.006.082.019.115.013.145-.027.182.066.17.241-.009.136-.001.274-.001.421h.143c.043.003.086.009.144.015v.35c0 .312.03.34.272.244v-.292-.305l.283-.024v-.263c0-.353 0-.353.254-.4.008-.001.016-.014.037-.035 0-.112-.008-.238.002-.362.012-.166-.033-.236-.158-.214-.106.019-.142-.048-.136-.185.007-.15.002-.301.002-.46l-.287-.024v-.616c-.268-.05-.268-.05-.268.286v.334l-.286.018v.626zm1.42 2.018c-.252-.08-.266-.065-.266.263v.699c0 .323.01.333.265.263v-1.225zm0-3.365v-1.224c-.253-.073-.265-.06-.266.261v.699c0 .326.012.338.266.264zm2.934 4.64c.1-.029.242-.035.25-.08.026-.169.023-.355-.004-.525-.006-.038-.153-.037-.246-.056v.662zm.005-5.891v.613h.263c0-.175.006-.338-.004-.5-.003-.041-.054-.095-.09-.109-.05-.018-.106-.004-.17-.004zm-.005 9.817c.1-.025.24-.029.246-.067a1.81 1.81 0 000-.526c-.006-.04-.151-.043-.245-.066v.66zM4.68.04c0 .147-.007.294.004.44.014.184-.038.259-.176.236-.033-.006-.068.008-.12.015v.624l-.29.022V2l-.286.03c0 .152-.007.297.002.44.011.169-.038.233-.162.213-.038-.006-.078.006-.126.011v.608l.284.017v.592c.024.022.032.035.04.036.245.032.242.032.247.362.002.1 0 .239.045.288.05.055.15.028.24.038v.589c.02.022.026.037.034.039.266.038.266.038.266.394v.222c.024.02.032.031.04.032.243.033.243.033.243.37v.291h.275V5.97c.023-.021.03-.034.04-.035.243-.042.242-.042.244-.387 0-.085.006-.17.01-.265l.28-.02v-.6c.028-.02.036-.031.044-.033.252-.044.252-.044.252-.391v-.27l.276-.022v-.62h.308v1.31l-.262.02v.606l.258.018v1.965l-.109.024c-.135.026-.209-.029-.19-.235.011-.13.002-.264.002-.416l-.28-.018v-.627H5.84v.625l-.288.02c0 .145-.007.284.002.42.01.168-.024.257-.163.233-.038-.006-.078.009-.125.016v.59l.282.036v.628l.286.02v.353c0 .32.012.33.274.256v-.608l.285-.02v-.397c0-.256.002-.258.19-.25.035.002.069.011.111.018V9.88l-.258.017v.608l.255.02v1.313h-.297v-.619l-.283-.025c0-.146-.008-.29.002-.432.011-.165-.032-.235-.158-.216-.038.006-.078-.009-.135-.017V9.93c-.026-.02-.033-.032-.042-.033-.254-.025-.26-.025-.252-.367.005-.192-.007-.328-.192-.297-.026.005-.085-.08-.088-.129-.012-.164-.005-.33-.005-.518-.063-.004-.115-.005-.168-.012-.077-.01-.113.034-.108.137v.12c-.001.373-.001.373-.283.436v.613l-.288.017v.603c-.028.02-.04.035-.053.038-.245.041-.245.041-.245.349 0 .3 0 .3-.277.332v.621l-.301.022v.654c-.092 0-.168.014-.238-.007-.03-.008-.068-.086-.07-.135-.009-.164-.003-.33-.003-.484-.023-.018-.031-.03-.04-.03-.25-.024-.25-.023-.251-.371v-.268l-.278-.028v-.622c-.104-.015-.194-.03-.297-.044v-.622l-.295-.03c0-.137-.006-.27.002-.4.012-.175-.029-.266-.172-.236-.028.006-.059-.007-.108-.013V8.6c-.273-.066-.276-.063-.276.266 0 .344 0 .344-.288.392 0 .132-.008.27.002.406.012.172-.028.253-.165.225-.037-.008-.078.004-.131.008v.614c-.283.088-.282.088-.288.474 0 .066-.007.13-.011.205-.094.01-.177.017-.274.026v.623H.03v-1.32c.064-.002.13.004.192-.01.03-.007.077-.052.078-.082.007-.175.003-.35.003-.53L.03 9.88v-2c.098.01.195.022.31.035v.637c.058 0 .097-.002.137 0 .043.003.086.009.145.015v.35c0 .312.029.34.28.242v-.607h.137c.039-.002.077-.006.138-.011v-.323c0-.298 0-.297.225-.33.019-.001.036-.015.065-.03 0-.135-.007-.267.002-.398.01-.153-.035-.21-.144-.19-.125.024-.155-.063-.149-.21.007-.143.002-.287.002-.44L.89 6.597v-.615c-.268-.048-.268-.048-.268.285V6.6l-.289.02v.212c-.002.416-.002.416-.304.449v-2c.034-.003.07-.014.103-.007.152.035.18-.064.177-.244-.008-.37-.002-.37-.28-.39V3.32h.306v.626c.14.024.312-.06.292.27-.024.37-.004.372.282.43v.627c.056 0 .092.005.126-.001.13-.026.184.037.17.218-.012.136-.003.275-.003.417.055.007.09.02.123.014.136-.025.18.057.166.228-.007.099 0 .2 0 .3-.002.097.023.15.104.14.052-.005.105 0 .167 0 0-.196-.007-.363.004-.527.003-.049.06-.135.086-.13.182.03.201-.098.195-.295-.009-.346-.002-.347.25-.371.008 0 .016-.012.044-.035v-.595l.297-.032V3.97c.045-.006.075-.019.103-.012.155.035.188-.071.175-.25-.009-.124-.002-.25-.002-.385l.278-.025v-.602c-.278-.038-.278-.038-.278-.365 0-.301 0-.301-.23-.32-.013 0-.027-.011-.056-.026v-.608c-.052-.005-.087-.016-.12-.01-.138.028-.19-.046-.175-.23.01-.13.002-.264.002-.404C2.282.725 2.242.71 2.205.715 2.079.735 2.036.663 2.044.5c.007-.153-.002-.306-.004-.46h1.2c-.004.345-.009.69-.01 1.035-.002.29.035.323.28.227V.04h1.17zm-.026 8.5c0-.162.006-.302-.002-.44-.008-.155.032-.221.152-.209.058.006.14.032.14-.11V7.29c-.05-.01-.08-.023-.108-.018-.146.026-.2-.054-.184-.247.01-.134.002-.271.002-.407l-.284-.02v-.626h-.275v.626l-.283.023v.267c0 .352 0 .352-.256.394-.009.002-.016.013-.029.024v.572l.29.038v.628l.287.019v.622h.273V8.56c.098-.006.176-.012.277-.02zm-2.582-.627v.628l.135.01c.044.004.088.006.153.01v.345c0 .325.013.338.275.262V8.56l.28-.019c0-.164.006-.31-.001-.454-.008-.15.035-.198.145-.198.049 0 .135-.058.14-.101.016-.161.006-.328.006-.497-.051-.009-.086-.025-.119-.02-.142.026-.184-.063-.172-.24.008-.135.001-.272.001-.413l-.286-.02V5.99c-.26-.07-.269-.061-.269.266V6.6l-.278.02c-.003.068-.008.126-.009.184-.003.133.031.296-.015.39-.04.08-.17.08-.272.12v.565l.286.035zm1.422-2.016V4.671c-.258-.066-.265-.06-.265.267v.699c0 .325.017.342.265.26zm.002 4.593V9.248h-.267v.972c0 .329.006.335.267.27zM.03 13.159h.301v.621l.291.026c0 .14.007.272-.002.403-.01.175.03.267.174.241.032-.005.067.013.114.023v.627h.269c0-.133.008-.27-.002-.404-.014-.189.033-.278.181-.25.028.005.059-.008.11-.018 0-.138.008-.277-.002-.413-.012-.174.031-.25.166-.224.038.007.078-.006.124-.01v-.606h-.573c0-.217-.004-.413.005-.608.001-.032.061-.083.095-.084.23-.008.46-.01.69.002.035.003.093.089.097.143.012.162.004.328.004.503l.288.026c0 .14.007.271-.002.402-.011.177.03.267.174.235.028-.007.059.005.102.01v.646c-.01.008-.017.021-.025.022-.248.036-.248.036-.249.38v.268l-.287.018c0 .147-.009.286.002.423.014.184-.037.26-.176.236-.033-.006-.068.007-.122.014v.624l-.28.02v.627l-.294.03v.405c0 .25-.001.25-.194.244-.03 0-.06-.006-.11-.011v-.638l-.297-.03v-.62l-.295-.03c0-.133-.008-.26.002-.382.016-.198-.033-.292-.189-.256-.03.007-.06.004-.09.004v-.68l.277-.021v-.23c.001-.377.001-.377-.277-.389v-1.32z" fill="#fff"/><path d="M.03 24.279c.328.008.27.028.278-.351.001-.092.006-.184.01-.286l.28-.021v-.626l.296-.029v-.61c.024-.02.032-.03.04-.032.27-.032.27-.032.27.316v.318c.048.008.09.017.133.022.044.005.088.007.154.012v.626l.283.025v.589c.02.022.028.035.036.037.262.045.263.045.263.407v.257c.095.01.182.018.287.027 0 .14.008.273-.002.404-.012.183.038.26.177.232.028-.006.058.005.1.01v.648c-.012.01-.02.02-.029.022-.245.028-.245.027-.246.362v.282l-.287.026c0 .168-.003.326.001.484.003.115-.024.172-.118.17-.22-.006-.44.003-.66-.007-.04-.002-.108-.063-.11-.103-.013-.184-.006-.37-.006-.576h.574v-.597c-.004-.005-.011-.02-.02-.022-.267-.044-.267-.044-.267-.413v-.204c-.021-.02-.029-.033-.037-.035-.252-.045-.252-.045-.253-.401 0-.085-.006-.17-.009-.264h-.26v.614c-.103.043-.227.045-.27.125-.046.085-.013.244-.016.37-.002.06-.008.117-.013.185l-.273.024v.622H.031v-1.32c.064-.002.13.005.192-.01.03-.006.077-.052.078-.082.007-.175.003-.35.003-.53l-.274-.019v-.678zM.03 17.72c.303.02.303.02.303.426v.235l.289.017c0 .141.006.278-.002.414-.01.166.026.256.164.227.033-.007.068.007.123.013v.626c.098.02.251.007.267.063.042.147.03.324.027.488-.005.291-.199.063-.294.214V20.994c-.019.02-.025.034-.034.036-.25.044-.25.044-.251.397v.25c-.06.005-.104.01-.148.012-.039.002-.078 0-.14 0 0 .15-.01.288.001.423.016.197-.044.268-.185.242-.04-.007-.08.003-.12.005v-4.64zM1.2.04c.001.153-.004.306.005.458.01.163-.031.237-.158.218C1.01.71.97.72.911.726v.597c-.026.022-.033.034-.042.035-.246.03-.246.03-.246.357v.287l-.29.027c0 .142-.008.28.003.415.016.199-.046.265-.186.239C.11 2.675.07 2.68.03 2.68V1.36c.277-.053.28-.053.277-.3C.302.708.365.702.03.72V.04H1.2zM.03 37.398c.364-.002.296-.048.303.394v.26c.093.005.175.011.289.019 0 .14.008.276-.002.41-.012.182.036.26.174.231.029-.006.06.005.107.01v.592c.026.024.033.036.042.037.26.042.26.042.26.408l-.003.279H.03v-.68l.074.005c.202.003.202.003.203-.266.001-.326.001-.326-.277-.38v-1.32zM6.69.04c.004.18.007.358.014.537.004.109-.037.14-.11.137-.048-.002-.098 0-.16 0v.614c.088.01.17.018.268.03 0 .414.004.818-.006 1.223 0 .036-.09.087-.142.096-.061.011-.152.043-.158-.106a3.103 3.103 0 01-.002-.34c.011-.159-.025-.241-.155-.216-.034.006-.07-.004-.122-.008v-.625l-.299-.028V.748C5.524.662 5.524.662 5.523.26L5.52.04h1.17zM4.096 17.061l.288.023v.594c.112.045.242.045.282.125.046.094.013.257.016.39.001.058.006.117.01.187l.263.019v3.28l-.273.017c0 .142-.007.28.001.416.012.175-.026.268-.171.242-.034-.006-.07.007-.122.013v.627l-.288.02v.626l-.29.026c0 .143-.007.28.002.416.011.177-.027.269-.172.24-.033-.007-.069.005-.122.01v.623h-.309v-.584c-.023-.024-.03-.038-.038-.04-.257-.04-.257-.04-.258-.392v-.272l-.281-.024v-.612c-.295-.068-.295-.068-.298-.467 0-.059-.004-.118-.006-.17-.014-.014-.021-.027-.03-.029-.254-.045-.254-.044-.254-.4V21.7l-.275-.022v-3.28l.275-.018c0-.143.007-.28-.002-.416-.011-.177.03-.267.173-.241.033.006.068-.01.12-.018 0-.137.007-.27-.003-.4-.013-.179.03-.264.172-.235.034.007.07-.004.121-.008v-.596c.026-.022.033-.034.042-.035.246-.027.246-.027.246-.36 0-.266 0-.266.29-.344v-.602h.309v.602c.297.077.296.077.298.474 0 .066.004.13.007.208l.276.026v.626zm-.587 2.652c.095-.01.178-.016.276-.025v-.255c0-.364 0-.364.26-.408.008-.002.014-.017.018-.02v-1.23h-.254v.622l-.296.024v.638c-.062 0-.113-.013-.158.002-.13.042-.158-.038-.15-.19.006-.15.001-.3.001-.47h-.295v-.622h-.253v1.247c.045.004.081.016.114.01.145-.03.184.061.172.238-.009.135-.001.273-.001.415l.274.027v.648l-.274.027v.29c0 .342 0 .342-.256.37-.008 0-.016.01-.03.02v1.232h.262v-.623l.288-.02c0-.177-.006-.342.003-.507.003-.05.038-.13.067-.138.074-.02.153-.006.244-.006v.652l.296.02v.617h.25v-1.239c-.089-.014-.2.012-.246-.049-.046-.061-.034-.21-.035-.32-.004-.298-.002-.298-.232-.317-.014-.002-.027-.014-.045-.023v-.637zm1.14.63v-.604h-.252v.604h.251zm-2.318-.602h-.249v.595h.25v-.595zm1.164-3.315c-.097.025-.238.031-.243.067-.021.179-.017.368.007.547.004.03.149.027.236.04v-.654zm0 6.558c-.096.025-.237.03-.242.069a1.827 1.827 0 000 .528c.005.04.15.043.242.065v-.662zM4.973 13.167v.614l.276.023v.588c.027.027.034.04.043.042.26.048.26.047.26.411v.25h.26v-.625l.297-.04v-.625l.277-.02v-.623h.307v1.31l-.261.022v.607l.262.02v.657l-.273.034c0 .136-.007.268.001.398.012.172-.022.27-.17.238-.033-.007-.069.003-.12.007v.594c-.026.024-.033.037-.042.038-.255.034-.255.034-.256.43 0 .254-.004.252-.192.248-.094-.002-.125-.055-.12-.17.003-.039 0-.08 0-.12 0-.357 0-.357-.274-.392v-.622l-.298-.027v-.593c-.029-.023-.036-.034-.045-.035-.251-.034-.251-.034-.252-.381v-.285l-.275-.018v-.61c-.108-.025-.262-.016-.276-.07-.04-.157-.032-.34-.024-.51.012-.271.189-.064.286-.187v-.589l.29-.022c0-.164.002-.32-.002-.477-.003-.123.026-.184.128-.18.214.006.43.006.644 0 .1-.004.126.053.128.178.01.511.012.511-.368.511h-.21zM5.526 20.36c0-.189-.005-.373.004-.556.001-.036.051-.088.084-.097.061-.015.126-.004.202-.004 0-.17.008-.31-.002-.447-.014-.18.038-.245.169-.221.033.006.069-.005.122-.01V18.4l.29-.02v-.519c0-.177.1-.128.173-.134.072-.006.138-.006.137.139l-.004 4.4c0 .018-.007.037-.015.074-.05.004-.104.006-.158.013-.106.014-.141-.052-.136-.188.006-.15.001-.302.001-.464l-.28-.023v-.588c-.02-.022-.028-.035-.036-.037-.262-.04-.262-.04-.262-.404v-.256l-.29-.032zM5.258 1.358v.599c.02.015.029.027.037.027.257.023.257.023.257.365v.244c.02.021.027.035.036.036.246.045.246.045.246.386v.298c-.05.005-.093.012-.136.014-.04.003-.079 0-.146 0 0 .153-.008.297.002.438.012.176-.036.248-.168.227-.038-.006-.077.01-.128.019v.587c-.022.022-.03.035-.038.036-.274.04-.274.04-.274-.323v-.289c-.288-.082-.288-.082-.292-.488-.001-.06-.005-.118-.008-.197l-.274-.017c0-.197-.006-.388.006-.577.002-.037.076-.099.114-.094.139.016.18-.066.162-.233v-.04c.001-.366.001-.366.292-.398V1.67v-.312h.312zm-.281 1.335v.6h.256v-.6h-.256zM6.126 7.894c-.032.015-.045.025-.06.026-.25.03-.25.03-.25-.299v-.14c0-.24.069-.311.247-.24.028.012.058.082.06.127.008.172.003.345.003.526zM4.946 36.07c0-.146.009-.273-.002-.397-.017-.194.039-.27.182-.24.034.007.07.007.124.011v.59c.027.027.034.04.043.04.259.045.259.045.259.393v.274l.28.018c0 .198.005.389-.004.578-.001.035-.054.082-.088.093-.052.016-.108.004-.188.004 0 .155-.008.293.002.429.012.172-.029.253-.166.226-.037-.008-.077.004-.131.01v.637c-.077 0-.144-.003-.21.002-.081.006-.104-.046-.102-.145.004-.159 0-.318 0-.466-.019-.018-.026-.03-.034-.032-.257-.03-.257-.03-.257-.367 0-.253 0-.253-.27-.32v-.649l.27-.018c0-.139.007-.276-.001-.412-.01-.171.023-.271.17-.243.033.006.068-.008.123-.017zm.03.709v.604h.255v-.604h-.255zM1.466 4.041c-.02-.025-.023-.032-.027-.033-.261-.065-.261-.065-.262-.43v-.236l-.142-.013c-.04-.002-.08 0-.13 0v-.654c.09-.033.215-.028.254-.103.045-.087.014-.243.018-.369.002-.065.007-.129.012-.2l.275-.023v-.62h.306v.586c.025.024.032.036.04.037.262.03.262.03.263.398v.229c.102.028.255.035.26.077.026.198.012.405.012.627l-.127.014c-.04.002-.08 0-.145 0 0 .152-.008.296.002.438.012.176-.036.248-.168.226-.037-.006-.076.01-.128.018v.607c-.034.011-.057.024-.08.026-.233.017-.233.016-.233-.288v-.314zm.287-.743v-.614c-.093.037-.222-.104-.254.096-.026.163-.005.34-.005.518h.26zM1.177 38.074c0-.157-.006-.29.001-.42.01-.158-.023-.244-.155-.222-.037.006-.077-.01-.122-.018v-.654l.276-.023c0-.138.009-.27-.002-.398-.018-.205.042-.284.192-.255.024.004.049-.007.1-.016 0-.129.01-.26-.003-.387-.02-.208.042-.283.192-.25.033.008.068.008.12.014v.595c.11.043.24.043.28.122.047.093.014.257.017.39.001.058.005.117.009.187l.276.02c0 .19.006.375-.004.558-.003.042-.055.097-.092.111-.05.02-.108.005-.19.005 0 .16-.007.303.002.444.012.17-.038.232-.16.21-.039-.007-.079.004-.135.008v.627h-.311v-.625l-.291-.023zm.314-1.297v.337c0 .311.026.336.26.25v-.587h-.26zM.898 7.218v.71C.8 7.916.632 7.923.627 7.888a2.282 2.282 0 01-.008-.604c.006-.04.172-.044.279-.066zM.898 32.133v.725c-.105-.022-.272-.02-.278-.064a1.942 1.942 0 01-.002-.587c.007-.046.172-.048.28-.074zM4.386 32.154c0 .214-.002.393 0 .572.003.14-.074.122-.134.114-.065-.008-.167.062-.174-.103a4.645 4.645 0 01.003-.477c.002-.038.049-.094.08-.102.067-.015.137-.005.225-.005zM6.126 32.178v.544c.003.156-.083.123-.146.12-.066-.004-.163.05-.164-.12v-.239c0-.369 0-.37.31-.305zM2.638 32.131v.725c-.104-.02-.271-.017-.278-.059a1.953 1.953 0 01-.003-.587c.007-.047.171-.05.281-.079zM4.38 7.209v.725c-.105-.017-.273-.012-.279-.052a1.953 1.953 0 01-.005-.588c.007-.048.17-.054.283-.085zM2.642 7.216v.713c-.1-.013-.27-.004-.275-.039a2.264 2.264 0 01-.01-.604c.006-.04.173-.045.285-.07z" fill="#fff"/><defs><clipPath id="clip0"><path fill="#fff" d="M0 0h40v40H0z"/></clipPath></defs></svg>