<svg width="40" height="40" viewBox="0 0 40 40" fill="none" xmlns="http://www.w3.org/2000/svg">
<path fill-rule="evenodd" clip-rule="evenodd" d="M0 0H13V40H0V0ZM27 0H40V40H27V0Z" fill="#FF0000"/>
<path d="M27 0H13V40H27V0Z" fill="white"/>
<path fill-rule="evenodd" clip-rule="evenodd" d="M19.9998 15L19.3012 16.5082C19.2219 16.6721 19.0799 16.6569 18.9379 16.5653L18.432 16.2622L18.809 18.5787C18.8883 19.0019 18.634 19.0019 18.5084 18.8189L17.6257 17.6752L17.4824 18.256C17.4659 18.3322 17.3932 18.4124 17.2842 18.3933L16.168 18.1217L16.4612 19.3553C16.524 19.6298 16.5729 19.7435 16.3978 19.8159L16 20.0323L17.9215 21.8387C17.9975 21.907 18.0359 22.0299 18.0089 22.1412L17.8407 22.78C18.5023 22.6917 19.0954 22.6127 19.757 22.5245C19.8158 22.5237 19.9133 22.5815 19.9128 22.6599L19.8252 25H20.1469L20.0962 22.6649C20.0958 22.5865 20.1842 22.5237 20.243 22.5245C20.9046 22.6127 21.4977 22.6917 22.1593 22.78L21.9911 22.1412C21.9641 22.0299 22.0025 21.907 22.0785 21.8387L24 20.0323L23.6022 19.8159C23.4271 19.7435 23.476 19.6298 23.5388 19.3553L23.832 18.1217L22.7158 18.3933C22.6068 18.4124 22.5341 18.3322 22.5176 18.256L22.3743 17.6752L21.4916 18.8189C21.366 19.0019 21.1117 19.0019 21.191 18.5787L21.568 16.2622L21.0621 16.5653C20.9201 16.6569 20.7781 16.6721 20.6988 16.5082" fill="#FF0000"/>
</svg>
