<svg width="40" height="40" viewBox="0 0 40 40" fill="none" xmlns="http://www.w3.org/2000/svg">
<rect width="40" height="40" fill="#DE2910"/>
<g clip-path="url(#clip0)">
<path d="M9.23369 6.37848L11.838 14.3938L5.01978 9.44006H13.4476L6.62935 14.3938L9.23369 6.37848Z" fill="#FFDE00"/>
<path d="M17.1962 5.01932L16.9496 7.81775L15.5042 5.40881L18.0895 6.50812L15.3518 7.13834L17.1962 5.01932Z" fill="#FFDE00"/>
<path d="M20.6323 8.30397L19.3191 10.7874L18.9218 8.00636L20.8779 10.0227L18.1102 9.54121L20.6323 8.30397Z" fill="#FFDE00"/>
<path d="M20.9597 13.2567L18.7476 14.9883L19.5194 12.2871L20.4827 14.9261L18.1522 13.3574L20.9597 13.2567Z" fill="#FFDE00"/>
<path d="M17.1395 15.335L17.0091 18.1412L15.4651 15.7943L18.0937 16.7855L15.3846 17.5287L17.1395 15.335Z" fill="#FFDE00"/>
</g>
<defs>
<clipPath id="clip0">
<rect width="16" height="13.1446" fill="white" transform="translate(5 5)"/>
</clipPath>
</defs>
</svg>
