<svg width="40" height="40" viewBox="0 0 40 40" fill="none" xmlns="http://www.w3.org/2000/svg">
    <g clip-path="url(#clip0)">
        <rect width="40" height="40" fill="#69B3E7"/>
        <mask id="mask0" mask-type="alpha" maskUnits="userSpaceOnUse" x="0" y="0" width="20" height="20">
            <rect width="20" height="20" fill="#C4C4C4"/>
        </mask>
        <g mask="url(#mask0)">
            <path d="M70 0H-10V40H70V0Z" fill="#012169"/>
            <path d="M-10 0L30 20L-10 0ZM-10 20L30 0L-10 20Z" fill="black"/>
            <path d="M-10 20L30 0M-10 0L30 20L-10 0Z" stroke="white" stroke-width="5.33333"/>
            <path d="M-10 0L30 20L-10 0ZM-10 20L30 0L-10 20Z" fill="black"/>
            <path d="M-10 20L30 0M-10 0L30 20L-10 0Z" stroke="#C8102E" stroke-width="3.55556"/>
            <path d="M0 10C0 10 5.68077 10 20 10H0Z" fill="black"/>
            <path d="M10 0V26.6667M0 10C0 10 5.68077 10 20 10" stroke="white" stroke-width="8.88889"/>
            <path d="M0 10H20H0Z" fill="black"/>
            <path d="M10 0V20M0 10H20" stroke="#C8102E" stroke-width="5.33333"/>
        </g>
        <path d="M22.7933 15.5V27.4143C22.7933 31.3111 29.8342 33.625 29.8342 33.625C29.8342 33.625 36.875 31.311 36.875 27.4143V15.5H22.7933Z" fill="white"/>
        <path d="M28.8582 19.6862V25.0507H22.7933V27.0027H28.8582V33.2535L29.8342 33.625L30.8101 33.2535V27.0027H36.875V25.0507H30.8101V19.6862H28.8582Z" fill="#C8102E"/>
        <path d="M22.7933 15.5H36.875V20.101H22.7933V15.5Z" fill="#C8102E"/>
        <path d="M23.922 18.9414C24.3591 18.9414 24.7134 18.6562 24.7134 18.3045C24.7134 17.9528 24.3591 17.6677 23.922 17.6677C23.485 17.6677 23.1306 17.9528 23.1306 18.3045C23.1306 18.6562 23.485 18.9414 23.922 18.9414Z" fill="white" stroke="black" stroke-width="0.0535333" stroke-miterlimit="3"/>
        <path d="M23.922 18.3298C24.3107 18.3298 24.6258 18.1705 24.6258 17.974C24.6258 17.7776 24.3107 17.6183 23.922 17.6183C23.5334 17.6183 23.2183 17.7776 23.2183 17.974C23.2183 18.1705 23.5334 18.3298 23.922 18.3298Z" fill="white" stroke="black" stroke-width="0.0536667" stroke-miterlimit="3"/>
        <path d="M23.922 19.0411C24.3107 19.0411 24.6258 18.8818 24.6258 18.6854C24.6258 18.4889 24.3107 18.3297 23.922 18.3297C23.5334 18.3297 23.2183 18.4889 23.2183 18.6854C23.2183 18.8818 23.5334 19.0411 23.922 19.0411Z" fill="white" stroke="black" stroke-width="0.0536667" stroke-miterlimit="3"/>
        <path d="M23.922 18.6602C24.3107 18.6602 24.6258 18.501 24.6258 18.3045C24.6258 18.1081 24.3107 17.9488 23.922 17.9488C23.5334 17.9488 23.2183 18.1081 23.2183 18.3045C23.2183 18.501 23.5334 18.6602 23.922 18.6602Z" fill="white" stroke="black" stroke-width="0.0536667" stroke-miterlimit="3"/>
        <path d="M36.5264 19.1884L36.4111 18.8703C36.4111 18.8703 36.0955 18.7416 36.0714 18.5739C36.0152 18.1269 35.8557 17.9594 35.6166 17.8955C35.377 17.8317 35.2176 17.9355 35.2176 17.9355C35.1455 18.0393 34.7862 18.0393 34.5868 18.0471C34.3873 18.0553 34.3838 17.9605 34.3838 17.9605C34.2289 17.9616 34.1637 17.8477 34.1637 17.8477C34.0623 17.6451 33.9868 17.5693 33.9367 17.5437C34.1956 17.5475 34.3905 17.428 34.6828 17.1214C35.0019 16.7861 35.2298 16.9157 35.2298 16.9157C35.0749 17.2288 35.2813 17.2011 35.2813 17.2011C35.7042 16.9859 35.337 16.443 35.2094 16.4669C35.0818 16.4908 35.0453 16.4048 35.0453 16.4048C35.0492 16.5023 34.9036 16.541 34.9036 16.541C35.0128 15.921 34.6428 15.7566 34.6428 15.7566C34.5868 15.8124 34.5547 15.9241 34.5547 15.9241C34.4511 16.2993 34.108 16.2434 33.7246 16.0597C33.3416 15.8763 32.32 16.2514 32.0009 16.3791C31.6813 16.5068 31.0988 16.7064 30.572 16.411C30.0454 16.1155 29.9174 16.1714 29.71 16.2274C29.5023 16.2832 29.1355 16.3712 29 16.2992C28.8641 16.2274 28.7093 16.2229 28.7093 16.2229C28.7463 16.2023 28.6886 16.1156 28.6886 16.1156C28.529 15.9002 28.7093 15.7682 28.7093 15.7682C28.7093 15.7682 28.4122 15.8519 28.5304 16.359L28.5847 16.435C28.5847 16.435 28.6245 16.5945 28.7125 16.6425L28.7093 16.6774C28.7093 16.6774 28.7845 16.6425 28.8081 16.7461C28.8324 16.8499 28.944 16.7541 28.9919 16.6664C28.9919 16.6664 28.912 17.1294 29.4868 17.2411C29.4868 17.2411 29.4225 17.1692 29.4466 17.1213C29.4704 17.0734 29.3749 17.0332 29.383 16.9616C29.3909 16.89 29.2396 16.858 29.359 16.8019C29.4785 16.7461 29.5347 16.6342 29.79 16.7859C30.0453 16.9376 30.2451 16.9058 30.2451 16.9058C30.2451 16.9058 30.0893 16.5862 30.1752 16.5864C30.261 16.5865 30.647 17.0645 30.8371 17.0409C31.0272 17.0174 31.3943 16.8019 31.578 16.8817C31.578 16.8817 31.5937 16.7859 32.296 16.6662C32.9985 16.5464 33.8649 16.1964 34.1898 16.5031C34.1898 16.5031 34.2278 16.7461 34.3633 16.81C34.3633 16.81 34.339 17.3127 33.4695 17.0332L33.1541 16.9502C33.1541 16.9502 33.1056 16.7975 31.4517 17.2229C31.4517 17.2229 31.3544 17.2568 31.2906 17.3049C31.2265 17.3525 31.1387 17.2808 30.8114 17.4004C30.4845 17.5204 29.263 17.9195 28.513 17.7757L28.5121 17.7777C28.3469 17.7284 28.1921 17.7539 28.1858 17.7278C28.1777 17.6959 28.2737 17.7359 28.2737 17.7359C28.218 17.6719 28.1939 17.6667 28.1939 17.6667C27.5633 17.5976 27.6748 17.3127 27.6748 17.3127L27.7069 17.4006C27.8107 17.265 27.6667 16.9457 27.6667 16.9457L27.6606 16.9468C27.659 16.9369 27.6572 16.9272 27.6548 16.9177L27.7069 16.8817C28.0103 16.6262 28.3616 16.5783 28.3616 16.5783C28.1539 16.3231 27.7147 16.4588 27.7147 16.4588C27.7228 16.1475 27.5952 15.7883 27.5952 15.7883C27.164 15.8362 26.9168 16.1952 26.9168 16.1952C26.9008 15.8761 26.4936 15.6926 26.4936 15.6926C26.6451 15.8761 26.5496 16.315 26.5496 16.315L26.5656 16.3231C26.5403 16.3224 26.5256 16.3231 26.5256 16.3231L26.5165 16.4172L26.5016 16.4109C26.5016 16.4109 26.3501 16.4667 26.1746 16.8658C26.1746 16.8658 26.1568 16.9601 26.0889 17.0451C26.0883 17.0341 26.0895 17.0241 26.0881 17.0126C26.0881 17.0126 25.892 17.2696 25.4389 17.0126C25.4389 17.0126 24.8232 16.6473 24.6068 16.6609C24.3904 16.6743 24.2481 16.7758 24.262 16.8367C24.262 16.8367 23.7679 16.796 23.5989 17.08C23.5989 17.08 23.227 17.2154 23.5449 17.5198C23.5449 17.5198 23.5875 17.6521 23.68 17.723C23.68 17.723 23.6669 17.4451 23.7342 17.5268C23.7342 17.5268 23.7517 17.5542 23.785 17.5733C23.7939 17.6123 23.8237 17.7206 23.8898 17.7757L23.9374 17.7606C23.9446 17.6913 23.9596 17.6037 23.975 17.5669C23.9823 17.5679 23.9881 17.5687 23.9907 17.5689C23.9886 17.571 23.9867 17.5721 23.9847 17.574L24.0726 17.7093L24.1739 17.6552C24.2214 17.6483 24.2822 17.6958 24.2822 17.6958L24.3972 17.6011C24.3965 17.6 24.3958 17.5998 24.3951 17.5987C24.5084 17.6177 24.5393 17.3981 24.5393 17.3981C24.6411 17.4248 24.7363 17.3949 24.8173 17.3458C24.8666 17.5279 25.2699 17.7231 25.2699 17.7231C25.2699 17.7231 25.2769 17.7225 25.2873 17.7217C25.2531 17.7435 25.2328 17.7599 25.2328 17.7599C25.4163 17.8878 25.7596 17.8558 25.7596 17.8558C25.616 17.9118 25.6361 18.1774 25.6361 18.1774C25.5523 18.2119 25.544 18.2947 25.544 18.2947C25.8234 18.4062 26.0143 18.3139 26.0143 18.3139C26.0296 18.4048 26.007 18.4145 26.007 18.4145C25.8954 18.6539 25.8475 18.8853 25.8475 18.8853C25.8499 18.8863 25.8528 18.8869 25.8552 18.8877C25.8517 18.894 25.8475 18.9001 25.8448 18.9066C25.8448 18.9066 25.3578 19.0756 25.1414 19.3124C25.1414 19.3124 25.121 19.2447 25.0601 19.2447C24.9992 19.2447 24.8098 19.0893 24.7219 19.0621C24.6341 19.0352 24.5055 19.0893 24.4716 19.0488C24.441 19.0118 24.4547 18.7347 24.3962 18.69C24.3964 18.69 24.3973 18.6903 24.3973 18.6903L24.3364 18.5212C24.2958 18.6091 24.1267 18.5887 24.1267 18.5887C24.12 18.5927 24.094 18.6117 24.0572 18.6392C24.0235 18.641 23.9847 18.6293 23.9847 18.6293C23.9673 18.6329 23.9502 18.6816 23.9375 18.729C23.9308 18.734 23.9239 18.7392 23.917 18.7444V18.697C23.8834 18.724 23.8157 18.6834 23.7885 18.6834C23.7753 18.6834 23.7589 18.7222 23.7456 18.762C23.6768 18.7748 23.5856 18.7782 23.5856 18.7782C23.5585 18.7917 23.5787 19.0014 23.5787 19.0014C23.3826 19.1097 23.4772 19.2719 23.4772 19.2719C23.5855 19.7996 24.4851 19.5628 24.5528 19.6306C24.6203 19.6983 24.776 19.7116 24.8573 19.7116C24.9383 19.7116 25.0396 19.9078 25.1548 19.9281C25.2699 19.9485 25.1548 19.7726 25.6882 19.6452C26.2214 19.5177 26.3992 19.2991 26.3992 19.2991C26.5662 19.2668 26.6127 19.0638 26.6252 18.9819C26.6268 19.0197 26.6313 19.0615 26.6373 19.1091C26.6614 19.2927 26.5345 19.3596 26.5345 19.3596L26.9966 19.2208C27.18 19.1729 27.1562 19.0132 27.1562 19.0132C27.3317 19.5161 27.6511 19.548 27.6511 19.548C27.7149 19.3564 27.7071 19.3004 27.7071 19.3004L27.8507 19.2926C27.8565 19.1844 27.761 19.1053 27.7056 19.0684L27.9304 19.2048L28.018 19.1888C28.018 19.2687 28.1378 19.3403 28.1378 19.3403L28.154 19.2368C28.2578 19.3725 28.4493 19.3245 28.4493 19.3245C28.4454 19.3004 28.4396 19.2754 28.4323 19.25C28.8413 19.5024 29.4946 19.1809 29.4946 19.1809C29.6702 19.2208 29.6941 19.117 29.6941 19.117C29.8937 19.1408 29.9399 19.0045 29.9399 19.0045C30.4095 18.9638 30.74 18.63 30.74 18.63C30.9712 18.614 30.9788 18.4486 30.9788 18.4486C30.9788 18.4486 31.2106 18.4944 31.4342 18.215C31.9528 17.4728 32.7285 17.8592 32.7285 17.8592L32.28 17.8876C31.1069 17.8797 31.5933 18.6776 31.5933 18.6776L31.6656 18.6699C31.7773 18.6938 32.1602 18.9971 32.0191 19.223C32.0168 19.227 32.0138 19.2306 32.0112 19.2343C31.772 19.5617 31.3291 19.2494 31.2028 18.9731C31.075 18.6939 30.8195 18.7578 30.8195 18.7578C30.8195 18.7578 30.1572 18.8695 30.4285 19.3963L30.4384 19.3966C30.4434 19.5251 30.524 19.6716 30.7603 19.8171C30.893 20.0049 31.3293 20.0245 31.6497 19.955C31.7988 19.9225 32.5857 19.5842 32.5857 19.5842C32.6434 19.4128 32.839 19.4523 33.0145 19.2049C33.19 18.9575 32.767 18.8696 32.6713 18.734C32.5754 18.5982 32.6953 18.6222 32.6953 18.6222C33.0783 18.8298 33.1102 18.1672 33.1102 18.1672C33.1502 18.5502 33.4853 18.654 33.4853 18.654C33.693 18.4468 33.5415 18.0236 33.5415 18.0236C34.0364 18.9095 34.3361 18.7685 34.3361 18.7685C34.0697 18.6035 34.2038 18.3827 34.2038 18.3827C34.443 19.3245 35.425 18.5025 35.425 18.5025C35.3771 18.638 35.4252 18.7178 35.5129 18.8056C35.6006 18.8934 35.7044 18.9334 35.6567 19.093C35.6087 19.2526 35.154 19.2208 35.154 19.2208C35.154 19.2208 34.7068 19.197 34.747 19.5721C34.7704 19.6597 35.0659 19.6916 35.1777 19.6678C35.1777 19.6678 35.1316 19.6778 35.2968 19.6999C35.3522 19.7071 35.419 19.7082 35.4871 19.706C35.6775 19.7002 35.8804 19.6678 35.8804 19.6678C36.1354 19.6121 36.0957 19.524 36.0957 19.524C36.4864 19.452 36.5266 19.1885 36.5266 19.1885L36.5264 19.1884Z" fill="#FEDD00" stroke="black" stroke-width="0.08" stroke-miterlimit="3"/>
        <path d="M23.5574 17.5538C23.5577 17.5534 23.5784 17.5045 23.6178 17.4987C23.6482 17.4941 23.6851 17.5167 23.7241 17.564L23.7454 17.548C23.7445 17.5464 23.6401 17.3943 23.6817 17.2868C23.7002 17.2389 23.7464 17.2061 23.8186 17.1899L23.8127 17.1636C23.7312 17.1823 23.6788 17.2205 23.6567 17.2773C23.6485 17.2985 23.645 17.3209 23.645 17.3433C23.645 17.3958 23.6635 17.449 23.6824 17.4898C23.6588 17.475 23.6358 17.4688 23.6137 17.4722C23.5736 17.4783 23.5541 17.5071 23.5435 17.5259L23.5574 17.5538Z" fill="black"/>
        <path d="M35.8758 19.6444C35.6092 19.6867 35.2177 19.7101 35.1866 19.6295C35.1811 19.6151 35.1802 19.5575 35.3985 19.4154L35.3731 19.3763C35.1909 19.4949 35.1176 19.5807 35.143 19.6462C35.1989 19.7914 35.7704 19.7085 35.8845 19.6903L35.8758 19.6444Z" fill="black"/>
        <path d="M30.7753 19.7983C30.7145 19.7053 30.7418 19.578 30.8565 19.4194L30.8187 19.3921C30.6912 19.5674 30.6635 19.713 30.7361 19.824L30.7753 19.7983Z" fill="black"/>
        <path d="M30.4151 19.3968C30.4209 19.5577 30.5345 19.707 30.752 19.8402L30.7765 19.8003C30.5728 19.6758 30.4672 19.5395 30.4617 19.3952C30.4537 19.1738 30.6877 19.003 30.6899 19.0012L30.6627 18.9632C30.6522 18.9706 30.406 19.15 30.4151 19.3968Z" fill="black"/>
        <path d="M34.9632 19.4568C34.89 19.5648 34.9145 19.6955 34.9155 19.701L34.9613 19.692C34.9609 19.6908 34.9397 19.5744 35.0021 19.4827C35.0396 19.4276 35.1001 19.3918 35.1821 19.3763L35.1736 19.3304C35.0787 19.3484 35.0081 19.3908 34.9632 19.4568Z" fill="black"/>
        <path d="M24.5431 17.4141L24.5286 17.4105L24.5267 17.4253C24.5263 17.4268 24.5059 17.5685 24.4416 17.607C24.4236 17.6178 24.4043 17.6189 24.3819 17.6108L24.2728 17.5444C24.251 17.5252 24.2324 17.5112 24.2009 17.5204C24.1946 17.5123 24.1696 17.4783 24.1696 17.4238C24.1696 17.4178 24.17 17.4113 24.1709 17.4047C24.1787 17.3408 24.2233 17.2792 24.3039 17.2217L24.2886 17.1998C24.2012 17.2623 24.1528 17.3301 24.1443 17.402C24.1345 17.4852 24.1827 17.5418 24.1848 17.5442L24.1913 17.5517L24.2001 17.5476C24.2244 17.5369 24.2314 17.5432 24.2551 17.5641L24.3728 17.6357C24.4027 17.6468 24.4304 17.6447 24.4554 17.6298C24.5219 17.59 24.5452 17.4741 24.5507 17.4419C24.834 17.5028 25.062 17.1584 25.0719 17.1436L25.0492 17.1289C25.0472 17.1326 24.8145 17.4853 24.5431 17.4141Z" fill="black"/>
        <path d="M23.864 17.3613C23.8498 17.4187 23.8595 17.475 23.8923 17.5288C23.9236 17.5797 23.9544 17.6068 23.9865 17.6111C24.0257 17.6165 24.057 17.5875 24.0846 17.562C24.1047 17.5432 24.1238 17.5257 24.1395 17.5269L24.1638 17.5437L24.1848 17.527L24.1413 17.5003C24.1139 17.4982 24.0909 17.5196 24.0664 17.5424C24.0419 17.5649 24.0168 17.5885 23.9901 17.5848C23.9668 17.5816 23.9418 17.558 23.9151 17.5148C23.8863 17.4674 23.8775 17.4178 23.8898 17.3677C23.9204 17.2413 24.0715 17.1485 24.0731 17.1476L24.0594 17.1248C24.0526 17.1287 23.8972 17.2241 23.864 17.3613Z" fill="black"/>
        <path d="M23.4742 19.1657C23.4877 19.1168 23.5252 19.0752 23.5856 19.0417C23.5737 19.0428 23.6448 19.1006 23.7058 19.0942C23.7058 19.0942 23.7305 19.0808 23.7454 19.0728C23.7616 19.0867 23.8672 19.1828 23.8672 19.3046C23.8672 19.3303 23.8625 19.3565 23.851 19.3832L23.8758 19.3936C23.953 19.2106 23.7587 19.0484 23.7569 19.0466L23.7498 19.041L23.7378 19.0488L23.7031 19.0676C23.6532 19.0728 23.5882 19.02 23.5877 19.0196C23.5057 19.0553 23.4638 19.1027 23.4483 19.1589L23.4742 19.1657Z" fill="black"/>
        <path d="M24.3763 18.6986C24.318 18.7036 24.1555 18.7346 24.1024 18.819C24.0833 18.8496 24.0804 18.8832 24.0943 18.9196L24.1157 18.9764C24.1663 19.1125 24.2189 19.2532 24.2762 19.285L24.2891 19.2617C24.2405 19.2347 24.1875 19.0925 24.1406 18.9671L24.1194 18.9104C24.1086 18.8816 24.1104 18.8564 24.1249 18.8332C24.1685 18.764 24.3146 18.7306 24.3786 18.7253C24.4158 18.7224 24.4279 18.8598 24.4353 18.9419L24.4619 18.9394C24.4512 18.8184 24.44 18.6934 24.3763 18.6986Z" fill="black"/>
        <path d="M23.9308 18.8323C23.8966 18.8628 23.9035 18.9088 23.9039 18.9108C23.9042 18.9234 23.9194 19.2633 24.0808 19.3335L24.0914 19.3091C23.9453 19.2454 23.9306 18.9114 23.9304 18.9082C23.9304 18.9061 23.9256 18.8724 23.9488 18.8521C23.9733 18.8303 24.0219 18.8286 24.0894 18.8472L24.0965 18.8215C24.0187 18.8 23.9629 18.8036 23.9308 18.8323Z" fill="black"/>
        <path d="M23.803 18.8601C23.7316 18.9098 23.7345 19.0517 23.7346 19.0576L23.7613 19.0571C23.7613 19.0557 23.7586 18.9233 23.8182 18.882C23.8405 18.8667 23.8697 18.866 23.9054 18.8804L23.9153 18.8557C23.8709 18.8376 23.8329 18.8391 23.803 18.8601V18.8601Z" fill="black"/>
        <path d="M27.6458 16.9843C27.647 16.9866 27.7219 17.1554 27.7219 17.2925C27.7219 17.3169 27.7104 17.3342 27.705 17.3553C27.702 17.3475 27.6759 17.2759 27.6759 17.2759L27.6533 17.3333C27.6523 17.3365 27.6228 17.4137 27.6755 17.5008C27.7452 17.6157 27.9187 17.6892 28.1916 17.7191H28.1914C28.1914 17.7193 28.1949 17.7223 28.1953 17.7229C28.184 17.7244 28.1755 17.7275 28.1729 17.73L28.162 17.7393L28.1634 17.7625C28.1705 17.7908 28.2028 17.7922 28.267 17.7947C28.2779 17.7953 28.2955 17.7979 28.308 17.7985C28.324 17.803 28.3403 17.8074 28.3403 17.8074C28.3403 17.8074 28.3359 17.8023 28.3349 17.8012C28.3971 17.8054 28.467 17.8207 28.5429 17.8491C28.5261 17.8535 28.4851 17.8638 28.4851 17.8638L28.5526 17.8904C28.5577 17.8924 29.055 18.0922 29.2608 18.2565C29.2024 18.3072 28.953 18.4935 28.521 18.3871L28.4486 18.3693L28.4977 18.4253C28.5007 18.4287 28.7821 18.7515 28.8404 18.9472C28.7424 18.9482 28.3649 18.9448 28.233 18.8327L28.1989 18.8638C28.2007 18.8666 28.3798 19.1296 28.4199 19.3346C28.3685 19.3414 28.2456 19.3464 28.1729 19.2514L28.1393 19.2077C28.1393 19.2077 28.1258 19.2958 28.1211 19.3261C28.086 19.2996 28.0417 19.26 28.0417 19.2176V19.1897C28.0417 19.1897 27.9492 19.2065 27.9353 19.209C27.9229 19.2017 27.7697 19.1087 27.7165 19.0765C27.6977 19.0643 27.6854 19.0573 27.6814 19.0553C27.6812 19.055 27.6794 19.0539 27.6794 19.0539L27.6778 19.053L27.6551 19.094C27.6551 19.094 27.6812 19.1096 27.6886 19.1142C27.7355 19.1448 27.8157 19.2113 27.8237 19.2995C27.7892 19.3015 27.6815 19.3073 27.6815 19.3073L27.6842 19.3321V19.336C27.6842 19.3506 27.6796 19.4118 27.6349 19.5497C27.5676 19.5337 27.323 19.4484 27.1784 19.0342L27.1334 19.0454C27.1336 19.0465 27.1342 19.052 27.1342 19.0608C27.1342 19.0985 27.1209 19.1932 26.991 19.2269C26.9902 19.2271 26.7498 19.2994 26.6161 19.3394C26.6412 19.3036 26.664 19.2546 26.664 19.1835C26.664 19.1683 26.6631 19.1521 26.661 19.1348C26.6529 19.0746 26.6481 19.0245 26.6481 18.9827C26.6481 18.8955 26.6695 18.8435 26.7297 18.8066L26.7087 18.765C26.7031 18.7672 26.15 18.9869 25.8757 18.8957C25.8883 18.8422 25.9347 18.6539 26.0284 18.4533L26.0163 18.4648C26.0342 18.4571 26.0526 18.429 26.0375 18.339L26.0324 18.3083L26.0043 18.3218C26.0025 18.3227 25.827 18.401 25.5735 18.3081C25.5786 18.2873 25.5921 18.25 25.6452 18.2279L25.6607 18.2217L25.6593 18.2047C25.6593 18.2041 25.6586 18.1923 25.6586 18.1738C25.6586 18.1054 25.6694 17.945 25.7679 17.9065L25.7574 17.8614C25.7542 17.8618 25.4576 17.8855 25.2777 17.7855C25.3249 17.7529 25.4241 17.693 25.5394 17.6764L25.5579 17.6737L25.5592 17.6552C25.5595 17.6543 25.5599 17.6489 25.5599 17.6402C25.5599 17.6168 25.5508 17.5694 25.5302 17.5216C25.5986 17.5407 25.6807 17.5579 25.7097 17.5361L25.7196 17.5287L25.7111 17.3487L25.6645 17.3509C25.6645 17.3509 25.6701 17.4702 25.6716 17.4997C25.6423 17.5013 25.5677 17.4864 25.4953 17.4634L25.4236 17.4406L25.4698 17.5001C25.5073 17.5482 25.512 17.6081 25.5126 17.6355C25.3505 17.6656 25.2236 17.7663 25.2181 17.7708L25.1943 17.7904L25.2195 17.8081C25.359 17.9052 25.577 17.9136 25.689 17.9112C25.6229 17.9855 25.6118 18.1099 25.6118 18.1721C25.6118 18.1848 25.6122 18.1883 25.6124 18.1945C25.5332 18.2373 25.5213 18.3176 25.5208 18.3213L25.5191 18.3388L25.5355 18.3455C25.7751 18.441 25.9387 18.3949 25.9942 18.3743C25.9946 18.3818 25.9963 18.3919 25.9963 18.3972C25.9963 18.4191 25.9922 18.4258 25.9922 18.4258C25.8745 18.6726 25.8252 18.9072 25.8246 18.9094L25.8207 18.9288L25.8389 18.9361C26.0613 19.0249 26.4608 18.9036 26.6377 18.8411C26.6145 18.8811 26.601 18.9262 26.601 18.9822C26.601 19.0292 26.6067 19.082 26.6145 19.1409C26.6166 19.1558 26.6174 19.1696 26.6174 19.1829C26.6174 19.3154 26.5279 19.3655 26.5236 19.3677L26.5414 19.4107L27.0035 19.2719C27.1104 19.2442 27.1505 19.181 27.1676 19.1273C27.3499 19.5598 27.6362 19.5987 27.6488 19.6002L27.6675 19.6018L27.6733 19.5842C27.7178 19.4514 27.728 19.3839 27.7301 19.3513C27.7609 19.3499 27.8731 19.3437 27.8731 19.3437L27.8743 19.3227C27.8745 19.319 27.8745 19.3156 27.8745 19.3121C27.8745 19.2739 27.8626 19.2401 27.8461 19.2097C27.8749 19.2271 27.926 19.2581 27.926 19.2581C27.926 19.2581 27.9789 19.2485 28.0026 19.2442C28.0226 19.3214 28.1143 19.3821 28.1262 19.3893L28.1559 19.4072C28.1559 19.4072 28.1668 19.3368 28.1714 19.3061C28.2855 19.4082 28.4476 19.3778 28.4552 19.3759L28.4756 19.3707L28.4726 19.3499C28.4494 19.1938 28.3446 19.008 28.283 18.9087C28.4858 19.0009 28.8552 18.9941 28.8734 18.9936L28.9009 18.9926L28.8955 18.9656C28.8627 18.8015 28.6577 18.5432 28.5719 18.4404C29.0483 18.53 29.3042 18.2828 29.3152 18.2716L29.3319 18.2538L29.3135 18.2376C29.1533 18.0981 28.7842 17.9361 28.6359 17.8741C28.644 17.8721 28.6878 17.861 28.6878 17.861L28.6365 17.8323C28.5125 17.7626 28.381 17.754 28.2921 17.7501L28.2917 17.7494C28.2353 17.6849 28.2067 17.6746 28.1994 17.673C27.8772 17.6374 27.7591 17.5471 27.7163 17.4774C27.7126 17.4717 27.7145 17.4678 27.7118 17.4622C27.7187 17.4529 27.726 17.4437 27.726 17.4437C27.757 17.4032 27.7681 17.3491 27.7681 17.2917C27.7681 17.1438 27.693 16.9747 27.6887 16.965L27.6459 16.9843H27.6458Z" fill="black"/>
        <path d="M26.1627 16.8896C26.1617 16.8942 26.1273 17.0708 25.977 17.1535C25.8639 17.2157 25.7144 17.2106 25.5333 17.1381L25.5128 17.13L25.515 17.1518C25.5155 17.1563 25.5274 17.26 25.6252 17.336C25.7066 17.3995 25.8232 17.4217 25.9692 17.4057C25.9204 17.4637 25.7634 17.6644 25.7634 17.859C25.7634 17.8693 25.764 17.8796 25.765 17.8897C25.785 17.904 26.031 17.9707 26.1451 17.8249C26.1492 17.8874 26.1671 18.0875 26.2453 18.1658C26.2881 18.2084 26.2982 18.2707 26.2982 18.3204C26.2982 18.3652 26.2897 18.3998 26.2897 18.4005L26.2808 18.4361L26.3105 18.4145C26.32 18.4076 26.5462 18.2419 26.6185 18.0249C26.6183 18.0254 26.6547 17.9704 26.7246 17.9479C26.7231 17.9574 26.7219 17.9671 26.7219 17.9806C26.7219 18.0644 26.7586 18.2167 27.0028 18.31L27.0229 18.3177L27.021 18.2964C27.0208 18.2959 27.0194 18.2792 27.0194 18.2542C27.0194 18.1929 27.0279 18.0803 27.0863 18.022C27.1247 17.9837 27.1362 17.9404 27.1362 17.903C27.1362 17.8735 27.1297 17.8497 27.1231 17.8321C27.1724 17.8446 27.2889 17.8822 27.3364 17.971C27.4053 18.1001 27.6465 17.9973 27.6568 17.993L27.6485 17.9676C27.6475 17.9679 27.5471 17.9903 27.4837 17.9468C27.4558 17.9277 27.4391 17.8982 27.4332 17.8591L27.4221 17.7249C27.4196 17.6641 27.4112 17.6255 27.3807 17.593C27.4126 17.5901 27.4766 17.5912 27.5037 17.6511C27.5463 17.745 27.6926 17.7542 27.6986 17.7547L27.7487 17.7573L27.7067 17.7301C27.7053 17.7293 27.579 17.6455 27.6008 17.5363L27.619 17.4564C27.6536 17.3123 27.7111 17.0711 27.6643 16.923L27.6388 16.9312C27.6504 16.9681 27.6552 17.0119 27.6552 17.0587C27.6552 17.19 27.618 17.3459 27.593 17.4502L27.5745 17.5312C27.5723 17.5417 27.5716 17.5523 27.5716 17.5625C27.5716 17.6331 27.6174 17.6871 27.6532 17.7196C27.6102 17.7103 27.5506 17.6898 27.5282 17.64C27.4931 17.5629 27.3987 17.5594 27.3537 17.5685L27.3222 17.5749L27.349 17.5927C27.3914 17.621 27.3927 17.6539 27.3957 17.7259L27.407 17.8629C27.4137 17.9096 27.4344 17.9453 27.4686 17.9689C27.4985 17.9892 27.5334 17.9921 27.5653 17.9944C27.4937 18.0131 27.3955 18.0247 27.3602 17.9584C27.2937 17.8345 27.1109 17.8014 27.1032 17.8L27.0753 17.7952L27.0893 17.8196C27.0908 17.8223 27.1101 17.8575 27.1101 17.9022C27.1101 17.9339 27.1004 17.9703 27.0675 18.003C27.0026 18.0684 26.9927 18.187 26.9927 18.2526C26.9927 18.2654 26.9934 18.2672 26.9936 18.275C26.7847 18.1873 26.7478 18.0573 26.7478 17.9837C26.7478 17.9524 26.7538 17.9315 26.7547 17.9288L26.7607 17.9082L26.7395 17.9118C26.6381 17.9285 26.5959 18.0111 26.5941 18.0146C26.5361 18.1884 26.3786 18.3259 26.3216 18.3718C26.3234 18.3573 26.3255 18.3404 26.3255 18.3198C26.3255 18.2655 26.3137 18.1963 26.2645 18.1469C26.1814 18.0639 26.1701 17.7999 26.1701 17.7972L26.1683 17.7496L26.1451 17.791C26.0532 17.9556 25.785 17.8765 25.7823 17.8758C25.771 17.6679 26.0069 17.4018 26.0094 17.3991L26.0341 17.3717L25.9977 17.377C25.8436 17.3993 25.724 17.3787 25.642 17.3154C25.5778 17.2656 25.5547 17.2023 25.5465 17.1703C25.7252 17.2368 25.8751 17.2405 25.9904 17.1768C26.1516 17.0877 26.1869 16.9052 26.1883 16.8975C26.3576 16.5138 26.5055 16.4532 26.5071 16.4528L26.4978 16.4278C26.4911 16.4301 26.3386 16.4901 26.1627 16.8896Z" fill="black"/>
        <path d="M26.549 16.3209L26.5377 16.3213L26.4004 16.5095L26.4412 16.5136C27.1864 16.5861 27.5805 17.0357 27.5844 17.0404L27.6016 17.0604L27.7367 16.9136L27.7268 16.8985C27.3489 16.3034 26.5571 16.3206 26.549 16.3209L26.549 16.3209ZM26.5618 16.3676C26.6538 16.3678 27.3327 16.3888 27.6765 16.9097C27.6597 16.9279 27.6222 16.9689 27.6022 16.9908C27.5216 16.9073 27.1397 16.5504 26.4847 16.4734C26.51 16.4385 26.5523 16.3806 26.5618 16.3676Z" fill="black"/>
        <path d="M26.4415 16.7142C26.3779 16.8011 26.3187 16.9295 26.3187 16.9897C26.3187 17.0012 26.3209 17.0103 26.3258 17.016C26.3262 17.0166 26.3285 17.0167 26.3292 17.0176C26.2516 17.0872 26.2054 17.2034 26.2054 17.3346C26.2054 17.4068 26.2182 17.4821 26.245 17.5538L26.2599 17.5942C26.3331 17.7931 26.3961 17.965 26.7124 17.8638C27.017 17.7665 27.0289 17.747 27.1057 17.6204L27.1257 17.5877C27.1675 17.5197 27.2132 17.5061 27.2618 17.4917C27.3198 17.4743 27.38 17.4564 27.4327 17.3523L27.484 17.2754C27.5393 17.1991 27.6084 17.1046 27.6167 16.9836L27.59 16.9817C27.5824 17.095 27.5157 17.1861 27.4624 17.2595L27.4088 17.3401C27.3612 17.434 27.3092 17.4495 27.2541 17.466C27.2028 17.4812 27.1501 17.497 27.1028 17.5736L27.0826 17.6065C27.0088 17.7283 26.9994 17.744 26.7043 17.8385C26.4122 17.9318 26.3588 17.7862 26.285 17.585L26.27 17.5442C26.1868 17.3224 26.2518 17.0987 26.3601 17.0186L26.3973 16.9909C26.3973 16.9909 26.3512 16.9961 26.3457 16.9968C26.3452 16.9946 26.3446 16.9926 26.3446 16.9891C26.3446 16.9529 26.3842 16.8374 26.4629 16.7298C26.5302 16.6381 26.6889 16.5473 26.6906 16.5464L26.6773 16.5233C26.6706 16.5272 26.512 16.6179 26.4415 16.7142Z" fill="black"/>
        <path d="M26.2998 17.5165C26.3521 17.5527 26.4256 17.5502 26.5143 17.5165C26.5147 17.5481 26.5217 17.6152 26.5769 17.6639C26.6417 17.7213 26.7491 17.7324 26.8964 17.6972L26.8901 17.6714C26.7521 17.7043 26.6526 17.695 26.5946 17.6441C26.5323 17.5892 26.541 17.5018 26.5413 17.501L26.5437 17.4781L26.5225 17.4871C26.4332 17.5256 26.3634 17.5279 26.3148 17.4944C26.228 17.434 26.2345 17.2763 26.2347 17.2744L26.208 17.2732C26.2079 17.2804 26.2006 17.4476 26.2998 17.5165Z" fill="black"/>
        <path d="M26.4688 17.3038C26.4307 17.3129 26.4208 17.3448 26.4208 17.3695C26.4208 17.3754 26.4214 17.3809 26.4222 17.3856C26.4289 17.4543 26.5034 17.5 26.5711 17.5196C26.6369 17.5387 26.7179 17.5399 26.7498 17.4989C26.7626 17.4825 26.7719 17.4531 26.744 17.4054C26.6423 17.2325 26.4779 17.3002 26.4688 17.3038ZM26.5785 17.4938C26.5193 17.4769 26.454 17.4385 26.4488 17.3815C26.4476 17.3761 26.4411 17.3378 26.4749 17.3298L26.4775 17.329C26.4836 17.3263 26.6292 17.263 26.721 17.419C26.7373 17.4469 26.7399 17.4681 26.7286 17.4825C26.709 17.5081 26.6441 17.5131 26.5785 17.4938ZM26.4662 17.3048C26.4664 17.3045 26.4688 17.3037 26.4688 17.3037L26.4662 17.3048Z" fill="black"/>
        <path d="M26.5606 17.6517C26.5435 17.7978 26.5539 17.8013 26.5645 17.8046L26.5737 17.8075L26.5842 17.7951L26.6688 17.6836L26.5626 17.6333L26.5606 17.6517ZM26.5851 17.6736C26.6002 17.6807 26.6142 17.6873 26.6279 17.6938C26.6164 17.7085 26.595 17.737 26.5788 17.7583C26.5792 17.7363 26.5819 17.7053 26.5851 17.6736Z" fill="black"/>
        <path d="M26.3404 17.5345L26.3348 17.6725L26.4507 17.5323L26.3411 17.5202L26.3404 17.5345ZM26.3665 17.5499C26.3768 17.5511 26.3841 17.5518 26.3986 17.5534C26.3873 17.5669 26.3798 17.5762 26.3646 17.5944C26.3657 17.5729 26.3662 17.561 26.3665 17.5499Z" fill="black"/>
        <path d="M26.2632 17.4902C26.2642 17.492 26.3494 17.6587 26.3645 17.7195C26.3742 17.7581 26.4235 17.8021 26.4823 17.8239C26.5408 17.846 26.5958 17.8424 26.6368 17.8138L26.7137 17.7498C26.7394 17.7252 26.7479 17.7183 26.7687 17.7218L26.7731 17.6955C26.7382 17.6896 26.7212 17.7058 26.6953 17.7305L26.6216 17.7919C26.5761 17.8237 26.5206 17.8101 26.4915 17.799C26.4366 17.7786 26.3967 17.7392 26.3903 17.713C26.3743 17.6494 26.2903 17.4853 26.2869 17.4782L26.2632 17.4902Z" fill="black"/>
        <path d="M26.3741 16.9908C26.28 17.0342 26.2402 17.1484 26.2386 17.1532L26.2639 17.162C26.2643 17.1609 26.3018 17.0534 26.3854 17.015C26.4262 16.9963 26.4719 16.9969 26.5216 17.0164L26.5315 16.9918C26.4749 16.969 26.422 16.9688 26.3741 16.9908Z" fill="black"/>
        <path d="M27.0068 17.2904C27.0142 17.296 27.192 17.4307 27.0898 17.595L27.1125 17.6092C27.2278 17.4239 27.0245 17.2704 27.0227 17.2688L27.0068 17.2904Z" fill="black"/>
        <path d="M26.4723 17.3166C26.4723 17.3166 26.4446 17.4171 26.586 17.4526C26.586 17.4526 26.4531 17.4514 26.4446 17.4171C26.4357 17.3828 26.4454 17.3067 26.4723 17.3166Z" fill="black"/>
        <path d="M26.9061 17.4377C26.9061 17.4468 26.8986 17.4543 26.8896 17.4543C26.8806 17.4543 26.873 17.4468 26.873 17.4377C26.873 17.4286 26.8806 17.4211 26.8896 17.4211C26.8987 17.4211 26.9061 17.4286 26.9061 17.4377Z" fill="black"/>
        <path d="M26.9218 17.5003C26.9218 17.5095 26.9143 17.5171 26.9052 17.5171C26.8962 17.5171 26.8889 17.5095 26.8889 17.5003C26.8889 17.4914 26.8962 17.4839 26.9052 17.4839C26.9143 17.4839 26.9218 17.4915 26.9218 17.5003Z" fill="black"/>
        <path d="M26.8147 17.4858C26.8238 17.4858 26.8312 17.4784 26.8312 17.4693C26.8312 17.4603 26.8238 17.4529 26.8147 17.4529C26.8056 17.4529 26.7982 17.4603 26.7982 17.4693C26.7982 17.4784 26.8056 17.4858 26.8147 17.4858Z" fill="black"/>
        <path d="M26.8585 17.5637C26.8585 17.5726 26.851 17.58 26.8419 17.58C26.833 17.58 26.8256 17.5726 26.8256 17.5637C26.8256 17.5544 26.8331 17.5469 26.8419 17.5469C26.851 17.5469 26.8585 17.5544 26.8585 17.5637Z" fill="black"/>
        <path d="M26.446 17.1383C26.446 17.1475 26.4386 17.1549 26.4292 17.1549C26.4203 17.1549 26.4127 17.1474 26.4127 17.1383C26.4127 17.1294 26.4203 17.1218 26.4292 17.1218C26.4386 17.1218 26.446 17.1294 26.446 17.1383Z" fill="black"/>
        <path d="M26.4452 17.2183C26.4543 17.2183 26.4617 17.2109 26.4617 17.2018C26.4617 17.1927 26.4543 17.1853 26.4452 17.1853C26.4361 17.1853 26.4287 17.1927 26.4287 17.2018C26.4287 17.2109 26.4361 17.2183 26.4452 17.2183Z" fill="black"/>
        <path d="M26.3546 17.1868C26.3637 17.1868 26.3711 17.1794 26.3711 17.1703C26.3711 17.1612 26.3637 17.1539 26.3546 17.1539C26.3455 17.1539 26.3381 17.1612 26.3381 17.1703C26.3381 17.1794 26.3455 17.1868 26.3546 17.1868Z" fill="black"/>
        <path d="M26.3984 17.2645C26.3984 17.2735 26.3907 17.2811 26.3816 17.2811C26.3727 17.2811 26.3653 17.2735 26.3653 17.2645C26.3653 17.2553 26.3727 17.2478 26.3816 17.2478C26.3907 17.2478 26.3984 17.2553 26.3984 17.2645Z" fill="black"/>
        <path d="M26.6721 16.7089C26.6721 16.7089 26.8765 16.8346 26.6798 17.0707C26.6798 17.0707 26.7766 16.9988 26.7865 16.8754C26.7968 16.752 26.7163 16.6537 26.6721 16.7089Z" fill="black"/>
        <path d="M27.4564 17.0482C27.3906 17.082 27.2959 17.0194 27.2484 16.9603C27.2011 16.9011 27.1032 16.8859 27.0422 16.994C26.9813 17.1023 26.8935 17.1428 26.8935 17.1428C26.8935 17.1428 26.9793 17.0921 27.0676 16.9974C27.1555 16.9029 27.2062 16.9788 27.2924 17.0245C27.3787 17.0701 27.3922 17.0802 27.453 17.0565L27.4564 17.0482Z" fill="black"/>
        <path d="M27.4396 17.064C27.4127 17.0842 27.3634 17.1011 27.3111 17.0588C27.2588 17.0165 27.2147 16.9591 27.1489 16.9929C27.0828 17.0268 26.9576 17.1214 26.9576 17.1214C26.9576 17.1214 27.1606 16.981 27.1995 17.0115C27.2383 17.042 27.3298 17.1163 27.3855 17.0945C27.4414 17.0723 27.4396 17.064 27.4396 17.064Z" fill="black"/>
        <path d="M27.2839 17.1499C27.2197 17.1009 27.1554 17.2074 27.1013 17.194C27.0472 17.1803 27.0031 17.0907 27.0031 17.0907C27.0031 17.0907 27.054 17.1855 27.1249 17.1634C27.196 17.1415 27.2451 17.0975 27.289 17.1312C27.333 17.1652 27.2839 17.1499 27.2839 17.1499Z" fill="black"/>
        <path d="M27.1834 17.1633C27.0566 17.1764 27.044 17.058 27.044 17.0568C27.044 17.0568 27.084 17.1602 27.1961 17.1414L27.1834 17.1633Z" fill="black"/>
        <path d="M27.1793 17.0825C27.1876 17.1146 27.1858 17.1292 27.1518 17.1292C27.1177 17.1292 27.0945 17.1178 27.0945 17.0847C27.0945 17.0515 27.1743 17.0619 27.1793 17.0825Z" fill="black"/>
        <path d="M26.7239 16.9065C26.7239 16.9286 26.7057 16.9463 26.6832 16.9463C26.6608 16.9463 26.6564 16.9312 26.6564 16.9094C26.6564 16.8876 26.6608 16.867 26.6832 16.867C26.7057 16.867 26.7239 16.8848 26.7239 16.9065Z" fill="black"/>
        <path d="M26.5839 16.7646C26.5839 16.7646 26.8011 16.7669 26.6935 17.0388C26.6935 17.0388 26.7763 16.9035 26.7244 16.8061C26.6722 16.7089 26.5905 16.7334 26.5905 16.7334C26.5905 16.7334 26.5705 16.7518 26.5839 16.7646Z" fill="black"/>
        <path d="M26.5775 16.8734C26.5768 16.928 26.6132 16.9842 26.6853 17.0405L26.7019 17.0196C26.6366 16.9687 26.6037 16.9197 26.6042 16.874C26.6046 16.8283 26.6397 16.8012 26.6401 16.8009L26.6242 16.7793C26.6223 16.7809 26.5782 16.8144 26.5775 16.8734Z" fill="black"/>
        <path d="M26.6257 16.9192C26.6349 16.9505 26.6592 16.9742 26.698 16.9896L26.7079 16.965C26.6772 16.9528 26.6582 16.9349 26.6513 16.9119C26.6376 16.8657 26.6748 16.8117 26.6752 16.8113L26.6536 16.7958C26.6515 16.7986 26.6083 16.8609 26.6257 16.9192Z" fill="black"/>
        <path d="M26.9237 17.0703C26.9237 17.0703 26.9641 17.1582 26.9051 17.2529C26.8459 17.3477 26.8475 17.3426 26.8475 17.3426C26.8475 17.3426 26.9186 17.2124 26.8916 17.1582C26.8647 17.1041 26.9237 17.0703 26.9237 17.0703Z" fill="black"/>
        <path d="M27.7689 17.9876C27.9922 18.0296 28.4957 18.4245 28.5009 18.4285L28.5298 18.3916C28.5086 18.3752 28.0119 17.9858 27.7776 17.9417L27.7689 17.9876Z" fill="black"/>
        <path d="M27.967 18.5447C27.982 18.7427 28.1975 18.8659 28.2068 18.8708L28.2296 18.8302C28.2273 18.8291 28.0268 18.7142 28.0135 18.5411L27.967 18.5447Z" fill="black"/>
        <path d="M27.432 18.586C27.432 18.8081 27.6402 19.0769 27.6492 19.0883L27.6859 19.0594C27.6839 19.0569 27.4786 18.7921 27.4786 18.586H27.432Z" fill="black"/>
        <path d="M26.7262 18.6109C26.7629 18.6842 26.7591 18.7214 26.7496 18.7396C26.7385 18.76 26.7159 18.7632 26.7151 18.7634L26.7205 18.8099C26.7377 18.8079 26.7721 18.796 26.7902 18.7625C26.8125 18.7218 26.805 18.6638 26.768 18.5903L26.7262 18.6109Z" fill="black"/>
        <path d="M23.552 17.5154C23.552 17.5154 23.5655 17.6641 23.6805 17.7523C23.6805 17.7523 23.667 17.5897 23.7008 17.5223C23.7008 17.5222 23.64 17.4546 23.552 17.5154Z" fill="white" stroke="black" stroke-width="0.024" stroke-miterlimit="3"/>
        <path d="M23.7815 17.6101C23.7815 17.6101 23.8087 17.7452 23.8898 17.8061L23.9374 17.7926C23.9374 17.7926 23.9576 17.6234 23.9847 17.6032C24.0117 17.583 23.8697 17.664 23.7815 17.6101Z" fill="white" stroke="black" stroke-width="0.024" stroke-miterlimit="3"/>
        <path d="M23.9848 17.6031L24.0727 17.7384L24.1741 17.6843L24.1538 17.5221C24.1538 17.5221 24.0931 17.5084 23.9848 17.6031Z" fill="white" stroke="black" stroke-width="0.024" stroke-miterlimit="3"/>
        <path d="M24.3973 17.6304L24.2822 17.7252C24.2822 17.7252 24.2214 17.6777 24.174 17.6845L24.1944 17.5357C24.1944 17.5357 24.2755 17.4748 24.3973 17.6304Z" fill="white" stroke="black" stroke-width="0.024" stroke-miterlimit="3"/>
        <path d="M23.5787 19.0304C23.5787 19.0304 23.5585 18.8207 23.5856 18.8072C23.5856 18.8072 23.6666 18.8343 23.7005 18.8003C23.7005 18.8003 23.7479 18.9696 23.7343 19.0372C23.7209 19.1048 23.6397 19.0779 23.5787 19.0304Z" fill="white" stroke="black" stroke-width="0.024" stroke-miterlimit="3"/>
        <path d="M24.0998 18.8139C24.0998 18.8139 24.0931 18.638 24.1269 18.6176C24.1269 18.6176 24.2959 18.6379 24.3365 18.5501L24.3974 18.7191C24.3974 18.7191 24.208 18.6988 24.0998 18.8139Z" fill="white" stroke="black" stroke-width="0.024" stroke-miterlimit="3"/>
        <path d="M23.9174 18.8475C23.9174 18.8475 23.9511 18.6649 23.9851 18.6582C23.9851 18.6582 24.073 18.6851 24.1 18.6512L24.0933 18.8746C24.0933 18.8746 24.1 18.7798 23.9174 18.8475Z" fill="white" stroke="black" stroke-width="0.0233333" stroke-miterlimit="3"/>
        <path d="M23.7211 18.8748C23.7211 18.8748 23.7616 18.7125 23.7887 18.7125C23.8159 18.7125 23.8836 18.753 23.9173 18.726V18.8478C23.9173 18.8478 23.7682 18.814 23.7482 19.0168L23.7211 18.8748Z" fill="white" stroke="black" stroke-width="0.0233333" stroke-miterlimit="3"/>
        <path d="M26.3579 22.2423C26.3579 22.2423 26.8176 22.6693 26.6974 23.0415C26.6974 23.0415 26.9929 22.4065 26.6756 22.2203C26.3579 22.0342 26.347 22.1768 26.3579 22.2423V22.2423Z" fill="#00AD50" stroke="black" stroke-width="0.052" stroke-miterlimit="4.8"/>
        <path d="M25.7775 22.6576C25.7775 22.6576 25.6573 22.8222 25.7885 22.9426C25.7885 22.9426 25.6463 23.1503 25.7559 23.3257C25.7559 23.3257 25.6681 23.5118 25.6901 23.7089C25.6901 23.7089 25.6133 24.0154 25.7775 24.158C25.7775 24.158 25.9528 24.2456 26.0296 24.1689C26.0296 24.1689 26.1827 23.9391 26.0841 23.6979C26.0841 23.6979 26.1936 23.5009 26.0732 23.2491C26.0732 23.2491 26.1061 23.1067 26.0076 22.9427C26.0076 22.9427 26.0732 22.833 26.0184 22.7455C26.0184 22.7455 25.7995 22.5154 25.7775 22.6576Z" fill="#862633" stroke="black" stroke-width="0.052" stroke-miterlimit="4.8"/>
        <path d="M25.9088 22.1215C25.9088 22.1215 25.3614 21.0706 24.9782 21.0265C24.5949 20.9827 24.5731 20.6106 24.5731 20.6106C24.5731 20.6106 24.6168 20.7857 24.9235 20.7857C25.2301 20.7857 25.8214 21.2127 25.887 21.5411C25.9526 21.8695 26.0185 21.8259 26.0185 21.8259L25.9088 22.1215L25.9088 22.1215Z" fill="#00AD50" stroke="black" stroke-width="0.052" stroke-miterlimit="4.8"/>
        <path d="M25.9088 22.0448C25.9088 22.0448 26.106 20.72 26.9711 20.698C27.8358 20.676 27.5514 20.7637 27.7592 20.6212C27.7592 20.6212 27.1792 20.928 26.8177 20.9717C26.4565 21.0155 26.1608 21.716 26.1717 21.8477C26.1826 21.9789 25.9747 22.2309 25.8762 22.1434C25.7776 22.0558 25.9089 22.0448 25.9089 22.0448L25.9088 22.0448Z" fill="#00AD50" stroke="black" stroke-width="0.052" stroke-miterlimit="4.8"/>
        <path d="M26.1058 22.5381C26.1058 22.5381 26.3028 22.0125 26.6423 22.1878C26.6423 22.1878 26.3793 21.684 25.9086 22.122C25.9086 22.122 26.1167 22.4066 26.1057 22.5381H26.1058Z" fill="#00AD50" stroke="black" stroke-width="0.052" stroke-miterlimit="4.8"/>
        <path d="M25.4487 22.0116C25.4487 22.0116 25.7335 23.1833 25.2954 23.5445C25.2954 23.5445 25.3063 22.9426 25.0436 22.5812C24.7809 22.2197 25.3063 21.8258 25.4487 22.0116V22.0116Z" fill="#00AD50" stroke="black" stroke-width="0.052" stroke-miterlimit="4.8"/>
        <path d="M25.4818 22.2202C25.4818 22.2202 25.9966 22.7131 26.0295 22.8773C26.0624 23.0415 26.1827 22.3846 25.9419 22.1986C25.7009 22.0122 25.4382 21.9795 25.4382 21.9795L25.4818 22.2202Z" fill="#00AD50" stroke="black" stroke-width="0.052" stroke-miterlimit="4.8"/>
        <path d="M24.5326 23.5116C24.5326 23.5116 24.5792 23.7184 24.7062 23.7584C24.7062 23.7584 24.7127 23.9122 24.8263 23.9588C24.8263 23.9588 24.7661 24.0857 24.8664 24.1656C24.8664 24.1656 24.8462 24.4193 24.9398 24.4729C24.9398 24.4729 25.167 24.4595 25.2468 24.3927C25.2468 24.3927 25.2936 24.2261 25.167 24.0588C25.167 24.0588 25.1868 23.8986 25.0599 23.812C25.0599 23.812 25.1 23.5981 24.9397 23.5182C24.9397 23.5182 24.9131 23.3444 24.8128 23.2578C24.8129 23.2577 24.6194 23.5314 24.5326 23.5116Z" fill="#862633" stroke="black" stroke-width="0.052" stroke-miterlimit="4.8"/>
        <path d="M24.7859 23.2577C24.7859 23.2577 24.1116 23.0107 23.7378 23.3646C23.7378 23.3646 24.3118 23.4448 24.3853 23.5583C24.4587 23.6715 24.8124 23.3714 24.7859 23.2577H24.7859Z" fill="#00AD50" stroke="black" stroke-width="0.052" stroke-miterlimit="4.8"/>
        <path d="M24.5791 23.6784C24.5791 23.6784 24.5257 23.6317 24.459 23.5849C24.3922 23.5382 23.8249 23.3847 23.7445 23.932C23.7445 23.932 23.5375 23.3914 23.8379 23.3178C24.1386 23.2443 24.3789 23.418 24.579 23.6784" fill="#00AD50"/>
        <path d="M24.5791 23.6784C24.5791 23.6784 24.5257 23.6317 24.459 23.5849C24.3922 23.5382 23.8249 23.3847 23.7445 23.932C23.7445 23.932 23.5375 23.3914 23.8379 23.3178C24.1386 23.2443 24.3789 23.418 24.579 23.6784" stroke="black" stroke-width="0.052" stroke-miterlimit="4.8"/>
        <path d="M24.1352 22.5594C24.1352 22.5594 24.343 23.0082 24.4199 23.0304C24.4965 23.052 24.5511 22.9757 24.5511 22.9757C24.5511 22.9757 24.2775 22.5705 24.1352 22.5594Z" fill="#00AD50" stroke="black" stroke-width="0.052" stroke-miterlimit="4.8"/>
        <path d="M23.9819 21.8699C23.9819 21.8699 23.8066 21.2897 23.5987 21.4429C23.3907 21.5962 23.4454 22.0121 23.4454 22.0121C23.4454 22.0121 23.0293 21.5853 23.2701 21.2457C23.5113 20.9064 23.9819 21.2787 23.9819 21.8699H23.9819Z" fill="#00AD50" stroke="black" stroke-width="0.052" stroke-miterlimit="4.8"/>
        <path d="M24.453 23.0631C24.453 23.0631 24.453 23.1726 24.5297 23.2053C24.6064 23.2382 24.7486 23.2927 24.7486 23.2273C24.7486 23.1617 24.6393 22.9098 24.5952 22.9427C24.5514 22.9757 24.475 22.9753 24.453 23.0631Z" fill="#862633" stroke="black" stroke-width="0.052" stroke-miterlimit="4.8"/>
        <path d="M24.3217 22.3846C24.3217 22.3846 24.2998 21.8811 24.6281 21.6947C24.6281 21.6947 24.694 21.706 24.7269 21.6075C24.7269 21.6075 24.4638 22.2423 24.5405 22.5598L24.5297 22.6036" fill="#00AD50"/>
        <path d="M24.3217 22.3846C24.3217 22.3846 24.2998 21.8811 24.6281 21.6947C24.6281 21.6947 24.694 21.706 24.7269 21.6075C24.7269 21.6075 24.4638 22.2423 24.5405 22.5598L24.5297 22.6036" stroke="black" stroke-width="0.052" stroke-miterlimit="4.8"/>
        <path d="M24.3874 21.7711C24.3874 21.7711 24.9786 20.5447 25.7013 20.9717C25.7013 20.9717 24.9459 21.125 24.6722 21.6616L24.3984 22.0663L24.3874 21.7711L24.3874 21.7711Z" fill="#00AD50" stroke="black" stroke-width="0.052" stroke-miterlimit="4.8"/>
        <path d="M24.0696 22.2202C24.0696 22.2202 23.8943 21.3991 23.7849 21.2898C23.6753 21.1802 23.4892 21.0598 23.2701 21.2459C23.2701 21.2459 23.6535 20.9063 24.0586 21.1911C24.4635 21.4758 24.376 21.9247 24.376 21.9247L24.3323 22.4941L24.0586 22.2423" fill="#00AD50"/>
        <path d="M24.0696 22.2202C24.0696 22.2202 23.8943 21.3991 23.7849 21.2898C23.6753 21.1802 23.4892 21.0598 23.2701 21.2459C23.2701 21.2459 23.6535 20.9063 24.0586 21.1911C24.4635 21.4758 24.376 21.9247 24.376 21.9247L24.3323 22.4941L24.0586 22.2423" stroke="black" stroke-width="0.052" stroke-miterlimit="4.8"/>
        <path d="M24.7046 23.1944C24.7046 23.1944 23.9819 21.8262 23.5112 22.8005C23.5112 22.8005 23.4234 23.0522 23.5219 23.1505C23.5219 23.1505 23.2591 22.9536 23.3796 22.4719C23.4998 21.9903 24.2991 22.2091 24.5292 22.6034C24.7591 22.9974 24.825 23.1947 24.7921 23.2164C24.7591 23.2384 24.7045 23.1944 24.7045 23.1944L24.7046 23.1944Z" fill="#00AD50" stroke="black" stroke-width="0.052" stroke-miterlimit="4.8"/>
        <path d="M26.7413 23.5889C26.7413 23.5889 27.267 22.5049 27.5734 22.9975C27.5734 22.9975 27.6609 23.2383 27.5294 23.337C27.5294 23.337 27.3216 23.0852 27.1355 23.3918C26.9493 23.6982 27.026 23.6765 27.026 23.6765C27.026 23.6765 26.8289 23.7313 26.7413 23.5888L26.7413 23.5889Z" fill="#00AD50" stroke="black" stroke-width="0.052" stroke-miterlimit="4.8"/>
        <path d="M27.529 23.3367C27.529 23.3367 27.8136 23.4898 27.7154 23.7964C27.7154 23.7964 28.0983 23.063 27.573 22.9972C27.5731 22.9972 27.6716 23.2272 27.529 23.3367Z" fill="#00AD50" stroke="black" stroke-width="0.052" stroke-miterlimit="4.8"/>
        <path d="M27.5621 22.5925C27.5621 22.5925 28.2521 22.7895 28.2739 23.0854C28.2739 23.0854 28.3945 22.5158 28.0002 22.3406C28.0003 22.3407 27.5292 22.4175 27.5621 22.5925V22.5925Z" fill="#00AD50" stroke="black" stroke-width="0.052" stroke-miterlimit="4.8"/>
        <path d="M27.8689 21.6835C28.1646 21.1032 28.5368 21.8696 28.5368 21.8696C28.5368 21.8696 28.6681 21.2676 28.296 21.1579C27.9236 21.0484 27.6828 22.4388 27.6828 22.4388L27.2447 22.5374C27.2447 22.5374 27.3653 21.3223 28.0221 21.2126L28.0987 21.2237" fill="#00AD50"/>
        <path d="M27.8689 21.6835C28.1646 21.1032 28.5368 21.8696 28.5368 21.8696C28.5368 21.8696 28.6681 21.2676 28.296 21.1579C27.9236 21.0484 27.6828 22.4388 27.6828 22.4388L27.2447 22.5374C27.2447 22.5374 27.3653 21.3223 28.0221 21.2126L28.0987 21.2237" stroke="black" stroke-width="0.052" stroke-miterlimit="4.8"/>
        <path d="M27.3431 22.0337C27.3431 22.0337 26.9272 21.1797 26.6425 21.0922C26.3577 21.0046 26.796 20.8732 26.9711 21.0374C27.146 21.2015 27.4745 21.4096 27.4417 21.8477L27.3431 22.0337L27.3431 22.0337Z" fill="#00AD50" stroke="black" stroke-width="0.052" stroke-miterlimit="4.8"/>
        <path d="M26.9161 23.2055C26.9161 23.2055 27.0365 22.6254 27.3649 22.4501C27.6934 22.2748 28 22.3407 28 22.3407C28 22.3407 27.6057 22.4281 27.5403 22.6255C27.4745 22.8224 27.3649 22.8333 27.3649 22.8333L26.9161 23.2055V23.2055Z" fill="#00AD50" stroke="black" stroke-width="0.052" stroke-miterlimit="4.8"/>
        <path d="M26.7413 23.5889C26.7413 23.5889 26.5552 23.9393 26.5989 23.9939C26.5989 23.9939 26.4019 24.2785 26.4785 24.4209C26.4785 24.4209 26.6756 24.5742 26.7633 24.5084C26.7633 24.5084 26.9929 24.191 26.9273 24.0157C26.9273 24.0157 27.0806 23.8079 27.0261 23.6766C27.0261 23.6766 26.7962 23.6874 26.7413 23.5889Z" fill="#862633" stroke="black" stroke-width="0.052" stroke-miterlimit="4.8"/>
        <path d="M33.3818 24.8111C33.3695 24.8159 33.3572 24.8233 33.346 24.8351L33.3818 24.8111Z" fill="#862633" stroke="black" stroke-width="0.028" stroke-miterlimit="4.8"/>
        <path d="M34.1865 24.6095C34.1787 24.5895 34.1736 24.5979 34.1633 24.589C34.1486 24.5769 34.14 24.5381 34.1271 24.5236C34.1194 24.5148 34.1106 24.5234 34.1023 24.5212C34.0834 24.4798 34.0613 24.4362 34.0415 24.3962C34.0445 24.3916 34.0465 24.3861 34.0469 24.3776C34.0469 24.376 34.0376 24.3441 34.037 24.3427C34.0314 24.3338 34.0224 24.3391 34.017 24.3253C34.0109 24.3116 34.0155 24.2845 34.0134 24.2684C34.0118 24.2548 34.0065 24.2474 34.0073 24.2284C34.0082 24.2118 34.017 24.1926 34.016 24.1781C34.0156 24.169 34.0049 24.1486 34.0017 24.1409C33.9887 24.1096 33.9778 24.0801 33.9762 24.0415C33.9746 24.0066 33.9817 23.9852 33.9842 23.9549C33.9875 23.9186 33.9683 23.9009 33.9683 23.8674C33.9685 23.8417 33.9794 23.8129 33.9824 23.7899C33.9867 23.7584 33.987 23.7127 33.9844 23.6804C33.982 23.6495 33.9733 23.6309 33.9781 23.5962C33.9794 23.5877 33.9834 23.5809 33.9844 23.569C33.9841 23.5604 33.9841 23.5522 33.9841 23.5439V23.4941C33.9841 23.4779 33.9858 23.4597 33.9844 23.444C33.983 23.4309 33.9753 23.4173 33.9753 23.407C33.9753 23.3892 33.9866 23.3808 33.9842 23.3567C33.9826 23.3393 33.9801 23.3353 33.9762 23.3202C33.9685 23.2915 33.9737 23.2626 33.969 23.2319C33.9668 23.2172 33.9621 23.2125 33.9607 23.1957C33.9588 23.1759 33.9649 23.1691 33.9668 23.1551C33.9688 23.1411 33.9709 23.1228 33.969 23.108C33.9668 23.0902 33.9584 23.0777 33.9607 23.0583L33.9543 23.278C33.9488 23.0863 33.9412 22.9089 33.9412 22.9089L33.6496 22.7719C33.6496 22.7719 33.6249 23.3072 33.6312 23.3817C33.6371 23.4564 33.6621 23.967 33.6496 24.0292C33.6371 24.0915 33.6064 24.4027 33.6064 24.4027C33.6064 24.4027 33.4638 24.5023 33.4081 24.6142C33.3521 24.7263 33.3646 24.7637 33.3458 24.7637L33.4843 24.742L33.3812 24.8109C33.4024 24.8029 33.4248 24.8046 33.4454 24.8209C33.4478 24.8228 33.4632 24.836 33.4652 24.836C33.4706 24.836 33.4781 24.8221 33.4848 24.8197C33.5062 24.8125 33.5244 24.8527 33.5447 24.8496C33.5557 24.848 33.5706 24.8365 33.5795 24.8248C33.5869 24.8149 33.5897 24.7975 33.5975 24.7909C33.6046 24.7848 33.622 24.7919 33.6294 24.7919C33.6498 24.7919 33.6704 24.7925 33.6908 24.7919C33.7179 24.7911 33.7398 24.7529 33.7649 24.7313C33.7881 24.7117 33.8053 24.7048 33.8302 24.7063C33.8574 24.7083 33.882 24.7337 33.9098 24.7354C33.9308 24.7364 33.9453 24.739 33.9623 24.7169C33.974 24.7016 33.9823 24.6788 33.9934 24.6629L34.0622 24.6522C34.0759 24.6578 34.0899 24.6641 34.1016 24.6637C34.1191 24.6629 34.1373 24.6607 34.1548 24.6635C34.1614 24.6643 34.1745 24.6798 34.1799 24.676C34.1836 24.6731 34.1899 24.6522 34.1937 24.6459C34.1921 24.6375 34.1895 24.6165 34.1865 24.6094V24.6095Z" fill="#862633" stroke="black" stroke-width="0.028" stroke-miterlimit="4.8"/>
        <path d="M33.5968 24.8011C33.6144 24.8011 33.6305 24.7971 33.6453 24.81C33.6477 24.8146 33.6499 24.8191 33.6522 24.8235C33.657 24.8268 33.6621 24.8274 33.6668 24.8255C33.6767 24.8322 33.6787 24.836 33.6896 24.8385C33.6997 24.8406 33.7107 24.8381 33.7208 24.8382C33.7336 24.8386 33.7398 24.843 33.7517 24.8479C33.7725 24.8564 33.7862 24.8483 33.8042 24.8354C33.8251 24.82 33.8327 24.8317 33.8527 24.851C33.8677 24.8653 33.8646 24.864 33.8781 24.8542C33.8801 24.8496 33.8825 24.8451 33.8848 24.8412C33.8915 24.8384 33.8983 24.8366 33.9052 24.8354C33.9163 24.8301 33.9274 24.8308 33.9379 24.8267C33.949 24.8224 33.9571 24.8101 33.9688 24.8124C33.9789 24.8144 33.9905 24.8226 34.0001 24.8257C34.0094 24.8289 34.0134 24.8307 34.0212 24.8363C34.035 24.8077 34.0658 24.7992 34.0854 24.7853C34.1058 24.7712 34.1248 24.7883 34.1472 24.7885C34.1591 24.7885 34.1639 24.7816 34.1724 24.7788C34.1819 24.7754 34.1928 24.7804 34.2019 24.7766C34.2116 24.773 34.2134 24.7636 34.2241 24.7625C34.2439 24.76 34.2659 24.7923 34.2857 24.7984C34.2968 24.8021 34.3482 24.8136 34.3407 24.7758C34.3334 24.7398 34.3011 24.7647 34.2942 24.7395C34.2905 24.7251 34.2981 24.7047 34.2936 24.6886C34.2898 24.6739 34.2736 24.6568 34.2639 24.6536C34.2518 24.6498 34.2447 24.6625 34.2344 24.6526C34.2259 24.6447 34.2227 24.6152 34.2152 24.6035C34.2053 24.6108 34.1991 24.6175 34.186 24.6148C34.171 24.6112 34.1724 24.6061 34.1613 24.5919C34.137 24.5616 34.1231 24.6101 34.1007 24.6025C34.0837 24.597 34.0679 24.5542 34.0546 24.5368C34.0475 24.5275 34.0275 24.4974 34.0173 24.5041C33.9999 24.5154 34.0157 24.5482 34.0066 24.5627C34.0001 24.5728 33.9771 24.5624 33.9688 24.5641C33.9557 24.5669 33.9533 24.5703 33.9438 24.5861C33.9246 24.6178 33.9135 24.643 33.8836 24.6394C33.8695 24.6378 33.8588 24.6235 33.845 24.6287C33.8303 24.6343 33.822 24.6501 33.8058 24.6519C33.7941 24.6529 33.7806 24.6533 33.7691 24.6489C33.7578 24.6438 33.745 24.6226 33.7347 24.6168C33.7303 24.6131 33.7259 24.6124 33.7208 24.6141C33.7196 24.6135 33.704 24.6044 33.7038 24.6044C33.6859 24.5992 33.6873 24.5998 33.68 24.6236C33.6757 24.6383 33.6741 24.6535 33.6687 24.6674C33.6635 24.6792 33.652 24.6937 33.6453 24.7015C33.6327 24.7151 33.6267 24.7114 33.6104 24.7163C33.5973 24.7206 33.5798 24.741 33.5728 24.7147C33.5623 24.6751 33.6019 24.6159 33.5578 24.6262C33.5463 24.6289 33.5394 24.631 33.5323 24.6481C33.5245 24.6676 33.5308 24.6803 33.5273 24.7018C33.5227 24.7289 33.4711 24.7743 33.4813 24.7988C33.4882 24.816 33.5112 24.7895 33.5175 24.7938C33.528 24.801 33.525 24.8182 33.5324 24.8297C33.548 24.8536 33.5943 24.7928 33.5969 24.8257" fill="#862633"/>
        <path d="M33.5968 24.8011C33.6144 24.8011 33.6305 24.7971 33.6453 24.81C33.6477 24.8146 33.6499 24.8191 33.6522 24.8235C33.657 24.8268 33.6621 24.8274 33.6668 24.8255C33.6767 24.8322 33.6787 24.836 33.6896 24.8385C33.6997 24.8406 33.7107 24.8381 33.7208 24.8382C33.7336 24.8386 33.7398 24.843 33.7517 24.8479C33.7725 24.8564 33.7862 24.8483 33.8042 24.8354C33.8251 24.82 33.8327 24.8317 33.8527 24.851C33.8677 24.8653 33.8646 24.864 33.8781 24.8542C33.8801 24.8496 33.8825 24.8451 33.8848 24.8412C33.8915 24.8384 33.8983 24.8366 33.9052 24.8354C33.9163 24.8301 33.9274 24.8308 33.9379 24.8267C33.949 24.8224 33.9571 24.8101 33.9688 24.8124C33.9789 24.8144 33.9905 24.8226 34.0001 24.8257C34.0094 24.8289 34.0134 24.8307 34.0212 24.8363C34.035 24.8077 34.0658 24.7992 34.0854 24.7853C34.1058 24.7712 34.1248 24.7883 34.1472 24.7885C34.1591 24.7885 34.1639 24.7816 34.1724 24.7788C34.1819 24.7754 34.1928 24.7804 34.2019 24.7766C34.2116 24.773 34.2134 24.7636 34.2241 24.7625C34.2439 24.76 34.2659 24.7923 34.2857 24.7984C34.2968 24.8021 34.3482 24.8136 34.3407 24.7758C34.3334 24.7398 34.3011 24.7647 34.2942 24.7395C34.2905 24.7251 34.2981 24.7047 34.2936 24.6886C34.2898 24.6739 34.2736 24.6568 34.2639 24.6536C34.2518 24.6498 34.2447 24.6625 34.2344 24.6526C34.2259 24.6447 34.2227 24.6152 34.2152 24.6035C34.2053 24.6108 34.1991 24.6175 34.186 24.6148C34.171 24.6112 34.1724 24.6061 34.1613 24.5919C34.137 24.5616 34.1231 24.6101 34.1007 24.6025C34.0837 24.597 34.0679 24.5542 34.0546 24.5368C34.0475 24.5275 34.0275 24.4974 34.0173 24.5041C33.9999 24.5154 34.0157 24.5482 34.0066 24.5627C34.0001 24.5728 33.9771 24.5624 33.9688 24.5641C33.9557 24.5669 33.9533 24.5703 33.9438 24.5861C33.9246 24.6178 33.9135 24.643 33.8836 24.6394C33.8695 24.6378 33.8588 24.6235 33.845 24.6287C33.8303 24.6343 33.822 24.6501 33.8058 24.6519C33.7941 24.6529 33.7806 24.6533 33.7691 24.6489C33.7578 24.6438 33.745 24.6226 33.7347 24.6168C33.7303 24.6131 33.7259 24.6124 33.7208 24.6141C33.7196 24.6135 33.704 24.6044 33.7038 24.6044C33.6859 24.5992 33.6873 24.5998 33.68 24.6236C33.6757 24.6383 33.6741 24.6535 33.6687 24.6674C33.6635 24.6792 33.652 24.6937 33.6453 24.7015C33.6327 24.7151 33.6267 24.7114 33.6104 24.7163C33.5973 24.7206 33.5798 24.741 33.5728 24.7147C33.5623 24.6751 33.6019 24.6159 33.5578 24.6262C33.5463 24.6289 33.5394 24.631 33.5323 24.6481C33.5245 24.6676 33.5308 24.6803 33.5273 24.7018C33.5227 24.7289 33.4711 24.7743 33.4813 24.7988C33.4882 24.816 33.5112 24.7895 33.5175 24.7938C33.528 24.801 33.525 24.8182 33.5324 24.8297C33.548 24.8536 33.5943 24.7928 33.5969 24.8257" stroke="black" stroke-width="0.028" stroke-miterlimit="4.8"/>
        <path d="M33.4098 24.5891C33.4097 24.5857 33.409 24.5824 33.4088 24.5789C33.3965 24.5767 33.3825 24.5635 33.3712 24.5633C33.3606 24.5627 33.3397 24.5888 33.3324 24.6013C33.3098 24.6386 33.3161 24.6895 33.2781 24.6887C33.2688 24.6885 33.247 24.6823 33.2388 24.6879C33.2246 24.698 33.2336 24.7279 33.2336 24.7483C33.2336 24.7675 33.2423 24.7483 33.2321 24.7732C33.229 24.78 33.2197 24.7822 33.2173 24.7914C33.2096 24.8238 33.2367 24.8135 33.2486 24.8132C33.2793 24.813 33.3098 24.813 33.3401 24.8132C33.3585 24.8136 33.3696 24.8071 33.3868 24.8004C33.3981 24.7966 33.4221 24.7968 33.4317 24.7867C33.4351 24.7829 33.4462 24.7572 33.4478 24.7511C33.4502 24.7386 33.4454 24.7235 33.4484 24.713C33.4532 24.6946 33.4697 24.7016 33.4727 24.6768C33.4805 24.616 33.4156 24.6615 33.4258 24.6017" fill="#862633"/>
        <path d="M33.4098 24.5891C33.4097 24.5857 33.409 24.5824 33.4088 24.5789C33.3965 24.5767 33.3825 24.5635 33.3712 24.5633C33.3606 24.5627 33.3397 24.5888 33.3324 24.6013C33.3098 24.6386 33.3161 24.6895 33.2781 24.6887C33.2688 24.6885 33.247 24.6823 33.2388 24.6879C33.2246 24.698 33.2336 24.7279 33.2336 24.7483C33.2336 24.7675 33.2423 24.7483 33.2321 24.7732C33.229 24.78 33.2197 24.7822 33.2173 24.7914C33.2096 24.8238 33.2367 24.8135 33.2486 24.8132C33.2793 24.813 33.3098 24.813 33.3401 24.8132C33.3585 24.8136 33.3696 24.8071 33.3868 24.8004C33.3981 24.7966 33.4221 24.7968 33.4317 24.7867C33.4351 24.7829 33.4462 24.7572 33.4478 24.7511C33.4502 24.7386 33.4454 24.7235 33.4484 24.713C33.4532 24.6946 33.4697 24.7016 33.4727 24.6768C33.4805 24.616 33.4156 24.6615 33.4258 24.6017" stroke="black" stroke-width="0.028" stroke-miterlimit="4.8"/>
        <path d="M34.1452 22.8974C34.1452 22.9762 34.0913 23.0396 34.0245 23.0396C33.9585 23.0396 33.9041 22.9762 33.9041 22.8974C33.9041 22.8189 33.9584 22.755 34.0245 22.755C34.0913 22.7551 34.1452 22.8189 34.1452 22.8974Z" fill="black" stroke="black" stroke-width="0.052" stroke-miterlimit="4.8"/>
        <path d="M33.7514 22.722C33.7514 22.8006 33.6974 22.8642 33.6309 22.8642C33.5643 22.8642 33.5102 22.8006 33.5102 22.722C33.5102 22.6435 33.5643 22.5797 33.6309 22.5797C33.6974 22.5797 33.7514 22.6435 33.7514 22.722Z" fill="black" stroke="black" stroke-width="0.052" stroke-miterlimit="4.8"/>
        <path d="M33.9593 22.7767C33.9593 22.8554 33.9054 22.9189 33.8389 22.9189C33.7724 22.9189 33.7185 22.8554 33.7185 22.7767C33.7185 22.6979 33.7724 22.6343 33.8389 22.6343C33.9054 22.6343 33.9593 22.698 33.9593 22.7767Z" fill="black" stroke="black" stroke-width="0.052" stroke-miterlimit="4.8"/>
        <path d="M33.7578 22.9068C33.7578 22.9856 33.7036 23.0494 33.6372 23.0494C33.5707 23.0494 33.5168 22.9855 33.5168 22.9068C33.5168 22.8283 33.5707 22.7646 33.6372 22.7646C33.7037 22.7646 33.7578 22.8282 33.7578 22.9068Z" fill="black" stroke="black" stroke-width="0.052" stroke-miterlimit="4.8"/>
        <path d="M33.9448 23.0154C33.9448 23.0939 33.8905 23.1579 33.8243 23.1579C33.7579 23.1579 33.7037 23.0939 33.7037 23.0154C33.7037 22.9368 33.7579 22.8732 33.8243 22.8732C33.8904 22.8732 33.9448 22.9368 33.9448 23.0154Z" fill="black" stroke="black" stroke-width="0.052" stroke-miterlimit="4.8"/>
        <path d="M34.0029 21.4627C34.0029 21.4627 35.2181 19.7659 36.5211 21.5286C36.5211 21.5286 36.532 21.7039 36.4116 21.8899L36.3787 21.7477L36.3021 21.7695L36.2803 21.6819L36.1376 21.671L36.1817 21.4848L36.0282 21.6053L36.0502 21.4738L35.875 21.6493L35.8971 21.2768L35.7108 21.5944L35.7326 21.3755L35.667 21.4739L35.6275 21.3463L35.5686 21.4739L35.4808 21.4084V21.4959L35.3277 21.3645L35.273 21.5396L35.1964 21.3536L35.1744 21.4849L35.0976 21.3316L35.0869 21.4959L34.8349 21.3863L34.8896 21.5396L34.7694 21.4522L34.7912 21.5396L34.6272 21.5069L34.6379 21.6054L34.4627 21.5725L34.4957 21.66L34.2547 21.6273L34.342 21.7258L34.3177 21.7659C34.3177 21.7659 35.6341 21.3318 35.7217 22.974L35.4808 23.0944L35.5466 22.9633L35.4808 22.9194L35.2839 22.7663L35.3386 22.558L35.273 22.5801L35.2619 22.4597L35.2291 22.4815L35.1523 22.3611L35.1305 22.405L35.0758 22.2624L35.0211 22.3612L34.9881 22.1202L34.9007 22.2737L34.8895 22.1861L34.8566 22.2408L34.7472 22.1093L34.7146 22.1969L34.6706 22.1313L34.6379 22.2078L34.5174 22.0982V22.1861L34.4409 22.1202L34.4077 22.164L34.2219 22.0655L34.2105 22.1529L34.1122 22.0655L34.0793 22.1529C34.0793 22.1529 35.273 22.8319 34.9005 23.9378L34.8346 24.08L34.813 23.7079L34.7036 23.9049L34.7797 23.4779L34.7036 23.5544L34.6923 23.3904L34.5941 23.5544L34.5607 23.3685L34.5173 23.4232L34.4513 23.1384L34.3966 23.259L34.3091 22.9415L34.2435 23.0727L34.1996 22.7993L34.1558 22.9634L34.0243 22.7224L34.0026 22.8208L33.9261 22.6239L33.882 22.6897C33.882 22.6897 33.6631 22.6786 33.5975 22.6239C33.5318 22.5694 33.3456 22.9525 33.3456 22.9525L33.3676 22.7224L33.291 22.8755V22.7224L33.1486 23.1822L33.1157 22.8538L33.0391 23.1384L33.0061 23.051L32.9843 23.1715L32.9404 23.1275L32.9022 23.2568L32.8308 23.2043V23.3794L32.7652 23.2918L32.7105 23.5546L32.6777 23.4453V23.5655L32.623 23.5001L32.568 23.763L32.4915 23.6535L32.4808 23.8394L32.5133 23.9819L32.4258 23.9381L32.4588 24.1677C32.4588 24.1677 32.1193 23.5329 32.5246 22.9196C32.9294 22.3068 33.4769 22.1424 33.4769 22.1424L33.422 22.0879L33.4111 22.033L33.0827 22.1971L33.0938 22.0983L33.0061 22.1751L32.9843 22.0657L32.9293 22.1642L32.9187 22.1204L32.8419 22.241L32.7979 22.0657L32.7433 22.2739L32.6916 22.1283L32.5791 22.4378V22.208L32.4915 22.449L32.4587 22.1862L32.3931 22.4926V22.2189L32.2943 22.4926L32.2287 22.23L32.1849 22.4816L32.1193 22.2847L32.0534 22.5802L31.9551 22.3174L31.9003 22.7117L31.8347 22.5582L31.8237 22.8429L31.7473 22.6678L31.8237 23.0399L31.7251 22.8977L31.7581 23.1275L31.6158 22.8756L31.6267 23.1716L31.55 23.0728L31.517 23.1823C31.517 23.1823 31.4844 22.0437 32.2615 21.8245C33.0391 21.6056 33.5428 21.8904 33.5428 21.8904L33.2472 21.6496L33.28 21.5728H33.1706L33.2143 21.4852L32.9845 21.4963L33.0501 21.4086L32.8748 21.4305V21.3758L32.7653 21.4632L32.8092 21.3648L32.6559 21.4632L32.6465 21.3175L32.5682 21.4415L32.5248 21.3101L32.1742 21.6602L32.2727 21.2991L32.2071 21.3758L32.1962 21.2991L32.0976 21.4525L32.0757 21.3429L32.0318 21.4742L31.9989 21.321L31.9225 21.4742L31.8457 21.3321L31.813 21.5183L31.7581 21.4195L31.6924 21.5619L31.605 21.4742L31.5939 21.5619L31.4187 21.4852L31.4626 21.6167L31.3311 21.5072L31.2981 21.6823L31.2217 21.5947L31.167 21.8139L31.1123 21.6057L31.0575 21.77C31.0575 21.77 31.7422 20.0106 33.4745 21.1585C33.4745 21.1585 33.6631 21.3429 33.707 21.4743C33.7508 21.6057 33.7181 21.4964 33.7181 21.4964L33.6851 20.281L33.7508 20.8066L33.7945 20.6204L33.7837 20.8941L33.9586 20.5108C33.9586 20.5108 33.7508 21.146 33.8273 21.3758C33.8273 21.3758 33.9041 20.6424 34.1671 20.5546L33.9261 21.0801L34.0026 21.0691L33.9479 21.1788H34.0136L33.9342 21.3525L33.8931 21.4416L33.9367 21.5291L34.0029 21.4628L34.0029 21.4627Z" fill="#00AD50" stroke="black" stroke-width="0.052" stroke-miterlimit="4.8"/>
        <path d="M33.8228 22.1767L33.8573 22.2078C33.862 22.203 33.9702 22.0876 34.152 22.2411L34.1822 22.2053C33.9648 22.0215 33.8238 22.175 33.8228 22.1767Z" fill="black"/>
        <path d="M33.7699 21.5806L33.7628 21.6227C33.7628 21.6227 33.8254 21.596 33.8473 21.5866C33.8337 21.6108 33.7893 21.6882 33.7893 21.6882C33.7893 21.6882 33.8811 21.6577 33.9152 21.6463C33.8602 21.7182 33.759 21.8506 33.759 21.8506L33.7962 21.8794L34.0446 21.5539C34.0446 21.5539 33.9302 21.5921 33.8903 21.6055C33.9064 21.5774 33.9565 21.489 33.9565 21.489C33.9565 21.489 33.8551 21.5325 33.823 21.5463C33.8319 21.4924 33.8506 21.3794 33.8506 21.3794L33.8044 21.3716L33.7699 21.5806Z" fill="black"/>
        <path d="M33.5382 21.594C33.5382 21.594 33.5688 21.6619 33.5919 21.7124C33.5819 21.7083 33.5062 21.678 33.5062 21.678L33.7589 22.125C33.7589 22.125 33.7894 22.086 33.7912 22.0836C33.7658 22.1488 33.7403 22.2146 33.7403 22.2146L33.784 22.2317L33.8928 21.9515L33.8527 21.9287C33.8527 21.9287 33.7929 22.0052 33.765 22.041C33.7414 21.999 33.6539 21.8443 33.6125 21.7711C33.6177 21.7731 33.6826 21.7992 33.6826 21.7992C33.6826 21.7992 33.6349 21.694 33.6127 21.6451C33.6422 21.6635 33.7074 21.7043 33.7074 21.7043V21.5377H33.6607V21.6201C33.6244 21.5974 33.506 21.5235 33.506 21.5235L33.5382 21.594Z" fill="black"/>
        <path d="M33.379 22.1551L33.3976 22.1979C33.466 22.1686 33.5224 22.1637 33.5652 22.1842C33.6153 22.2082 33.6304 22.2599 33.6306 22.2603L33.6756 22.2482C33.675 22.2452 33.6552 22.1757 33.586 22.1423C33.5307 22.1157 33.461 22.12 33.379 22.1551Z" fill="black"/>
        <path d="M33.5367 22.3837L33.5751 22.6285L33.6214 22.6213L33.583 22.3764L33.5367 22.3837Z" fill="black"/>
        <path d="M33.849 22.4012L33.9114 22.5882L33.9558 22.5734L33.8935 22.3864L33.849 22.4012Z" fill="black"/>
        <path d="M33.9879 22.5397L34.0348 22.7266L34.0802 22.7152L34.0334 22.5283L33.9879 22.5397Z" fill="black"/>
        <path d="M24.6877 28.3443C24.6877 28.3443 24.4824 28.2511 24.3889 28.3193C24.2955 28.388 24.3083 28.4874 24.2273 28.4811C24.2273 28.4811 24.5383 28.5496 24.6067 28.4686C24.6751 28.388 24.6877 28.3629 24.6877 28.3629" fill="#00AD50"/>
        <path d="M24.6877 28.3443C24.6877 28.3443 24.4824 28.2511 24.3889 28.3193C24.2955 28.388 24.3083 28.4874 24.2273 28.4811C24.2273 28.4811 24.5383 28.5496 24.6067 28.4686C24.6751 28.388 24.6877 28.3629 24.6877 28.3629" stroke="black" stroke-width="0.052" stroke-miterlimit="4.8"/>
        <path d="M24.7255 28.4303C24.7255 28.4303 24.5904 28.6109 24.6371 28.7166C24.6836 28.8225 24.7836 28.8316 24.76 28.9093C24.76 28.9093 24.8937 28.6203 24.8295 28.536C24.7653 28.4522 24.7438 28.4346 24.7438 28.4346" fill="#00AD50"/>
        <path d="M24.7255 28.4303C24.7255 28.4303 24.5904 28.6109 24.6371 28.7166C24.6836 28.8225 24.7836 28.8316 24.76 28.9093C24.76 28.9093 24.8937 28.6203 24.8295 28.536C24.7653 28.4522 24.7438 28.4346 24.7438 28.4346" stroke="black" stroke-width="0.052" stroke-miterlimit="4.8"/>
        <path d="M24.4978 27.9302C24.4978 27.9302 24.2822 27.9971 24.2581 28.11C24.2333 28.2231 24.3091 28.2893 24.2446 28.3384C24.2446 28.3384 24.5224 28.1827 24.5198 28.0766C24.5171 27.9707 24.5103 27.9439 24.5103 27.9439" fill="#00AD50"/>
        <path d="M24.4978 27.9302C24.4978 27.9302 24.2822 27.9971 24.2581 28.11C24.2333 28.2231 24.3091 28.2893 24.2446 28.3384C24.2446 28.3384 24.5224 28.1827 24.5198 28.0766C24.5171 27.9707 24.5103 27.9439 24.5103 27.9439" stroke="black" stroke-width="0.052" stroke-miterlimit="4.8"/>
        <path d="M24.6244 28.0045C24.6244 28.0045 24.7266 27.8031 24.6622 27.7072C24.598 27.6105 24.4977 27.6188 24.5076 27.5385C24.5076 27.5385 24.4255 27.8461 24.5034 27.9182C24.5814 27.9896 24.6058 28.0034 24.6058 28.0034" fill="#00AD50"/>
        <path d="M24.6244 28.0045C24.6244 28.0045 24.7266 27.8031 24.6622 27.7072C24.598 27.6105 24.4977 27.6188 24.5076 27.5385C24.5076 27.5385 24.4255 27.8461 24.5034 27.9182C24.5814 27.9896 24.6058 28.0034 24.6058 28.0034" stroke="black" stroke-width="0.052" stroke-miterlimit="4.8"/>
        <path d="M24.4129 27.932C24.4129 27.932 24.4179 27.7068 24.3181 27.648C24.2185 27.589 24.1317 27.6398 24.1057 27.5627C24.1057 27.5627 24.1653 27.8758 24.2668 27.9071C24.3682 27.9377 24.3961 27.9395 24.3961 27.9395" fill="#00AD50"/>
        <path d="M24.4129 27.932C24.4129 27.932 24.4179 27.7068 24.3181 27.648C24.2185 27.589 24.1317 27.6398 24.1057 27.5627C24.1057 27.5627 24.1653 27.8758 24.2668 27.9071C24.3682 27.9377 24.3961 27.9395 24.3961 27.9395" stroke="black" stroke-width="0.052" stroke-miterlimit="4.8"/>
        <path d="M24.7812 28.3066C24.7812 28.3066 25.0176 28.2255 25.0364 28.4807C25.055 28.7358 25.0238 28.6488 25.0238 28.6488C25.0238 28.6488 24.8994 28.3751 24.7626 28.3314L24.7812 28.3066Z" fill="#00AD50" stroke="black" stroke-width="0.052" stroke-miterlimit="4.8"/>
        <path d="M24.7214 28.4343C24.7214 28.4397 24.7462 28.6326 24.7462 28.6326L24.7794 28.6284L24.7544 28.4354C24.7552 28.4356 24.8352 28.0113 24.8352 28.0113L24.8022 28.0052L24.7214 28.4343Z" fill="black"/>
        <path d="M24.5065 28.3715L24.4955 28.403C24.6085 28.4428 24.7662 28.3186 24.7728 28.3133L24.7519 28.2873C24.7505 28.2883 24.6021 28.4055 24.5065 28.3715Z" fill="black"/>
        <path d="M24.2738 27.8551L24.8026 28.1226L24.8237 28.0809L24.2949 27.8134L24.2738 27.8551Z" fill="black"/>
        <path d="M24.3864 28.0295L24.4193 28.0624L24.5251 27.9567L24.4922 27.9238L24.3864 28.0295Z" fill="black"/>
        <path d="M24.4924 27.7682L24.6044 28.011L24.6467 27.9915L24.5347 27.7487L24.4924 27.7682Z" fill="black"/>
        <path d="M24.7609 28.3081L24.7639 28.3548C24.9077 28.3451 24.9429 28.4382 24.9431 28.4392L24.9889 28.4297C24.9835 28.4031 24.9259 28.297 24.7609 28.3081Z" fill="black"/>
        <path d="M27.1869 28.4159C27.3632 28.3171 27.3985 27.971 27.3985 27.971C27.3563 28.0983 27.0319 28.2252 27.0319 28.2252C27.2716 28.0767 27.5607 27.407 27.5607 27.407C27.4831 27.6469 26.8555 27.8442 26.4533 28.0699C26.0512 28.2955 26.2629 28.9447 26.2629 28.9447C26.1502 28.867 25.9314 28.5216 25.8892 28.218C25.8466 27.9148 25.7268 27.795 25.4517 27.7597C25.1765 27.7244 25.0144 28.0346 25.0144 28.0346L24.6054 28.2464L25.0213 28.2604C25.0213 28.2604 25.3179 28.3594 25.3179 28.5921C25.3179 28.825 25.0569 29.7559 25.4869 30.278C25.7863 30.6408 26.8908 30.8492 26.8908 30.8492" fill="white"/>
        <path d="M27.1869 28.4159C27.3632 28.3171 27.3985 27.971 27.3985 27.971C27.3563 28.0983 27.0319 28.2252 27.0319 28.2252C27.2716 28.0767 27.5607 27.407 27.5607 27.407C27.4831 27.6469 26.8555 27.8442 26.4533 28.0699C26.0512 28.2955 26.2629 28.9447 26.2629 28.9447C26.1502 28.867 25.9314 28.5216 25.8892 28.218C25.8466 27.9148 25.7268 27.795 25.4517 27.7597C25.1765 27.7244 25.0144 28.0346 25.0144 28.0346L24.6054 28.2464L25.0213 28.2604C25.0213 28.2604 25.3179 28.3594 25.3179 28.5921C25.3179 28.825 25.0569 29.7559 25.4869 30.278C25.7863 30.6408 26.8908 30.8492 26.8908 30.8492" stroke="black" stroke-width="0.0666667" stroke-miterlimit="4.8"/>
        <path d="M26.3759 29.1351C26.3759 29.1351 26.4605 28.7189 26.7356 28.733C27.0107 28.7471 27.0883 28.4228 27.2505 28.3733C27.4127 28.324 28.2521 28.0984 28.3439 27.6962C28.3439 27.6962 28.2663 28.3594 27.4976 28.6908C27.4976 28.6908 28.118 28.4862 28.1887 28.3521C28.1887 28.3521 27.9135 28.9447 27.2435 29.0363C27.2435 29.0363 27.8712 28.987 27.9629 28.8178C27.9629 28.8178 27.6807 29.1916 27.2153 29.2411C27.2153 29.2411 27.6455 29.4174 27.7585 29.2692C27.7585 29.2692 27.5256 29.5442 27.2363 29.5652L27.3141 29.5865C27.3141 29.5865 27.039 29.9111 26.7357 29.6923C26.4325 29.4736 26.4252 29.7489 26.4252 29.7489" fill="white"/>
        <path d="M26.3759 29.1351C26.3759 29.1351 26.4605 28.7189 26.7356 28.733C27.0107 28.7471 27.0883 28.4228 27.2505 28.3733C27.4127 28.324 28.2521 28.0984 28.3439 27.6962C28.3439 27.6962 28.2663 28.3594 27.4976 28.6908C27.4976 28.6908 28.118 28.4862 28.1887 28.3521C28.1887 28.3521 27.9135 28.9447 27.2435 29.0363C27.2435 29.0363 27.8712 28.987 27.9629 28.8178C27.9629 28.8178 27.6807 29.1916 27.2153 29.2411C27.2153 29.2411 27.6455 29.4174 27.7585 29.2692C27.7585 29.2692 27.5256 29.5442 27.2363 29.5652L27.3141 29.5865C27.3141 29.5865 27.039 29.9111 26.7357 29.6923C26.4325 29.4736 26.4252 29.7489 26.4252 29.7489" stroke="black" stroke-width="0.0666667" stroke-miterlimit="4.8"/>
        <path d="M27.0021 29.7624C27.0021 29.7624 27.3564 30.3551 27.3917 30.6724C27.3917 30.6724 28.069 31.4202 28.3229 31.4622C28.3229 31.4622 28.2029 31.5115 27.9841 31.3283C27.9841 31.3283 28.1675 31.5188 28.2029 31.5259C28.238 31.5331 28.0547 31.5117 28.0264 31.4622C28.0264 31.4622 28.1041 31.5754 28.1534 31.5894C28.2029 31.6036 28.1041 31.5754 28.1041 31.5754C28.1041 31.5754 28.0122 31.5612 27.97 31.5259C27.9276 31.4907 27.9558 31.6174 27.9558 31.6174C27.9558 31.6174 27.85 31.5892 27.8149 31.554C27.7795 31.5188 27.829 31.6318 27.829 31.6318L27.7374 31.6105L27.6739 31.6527C27.6739 31.6527 27.6668 31.6951 27.6242 31.6598C27.5822 31.6249 27.5044 31.6598 27.5044 31.6598C27.5044 31.6598 27.4478 31.7093 27.4198 31.6739C27.3918 31.6387 27.2849 31.8096 27.2849 31.8096L26.8407 30.7375" fill="white"/>
        <path d="M27.0021 29.7624C27.0021 29.7624 27.3564 30.3551 27.3917 30.6724C27.3917 30.6724 28.069 31.4202 28.3229 31.4622C28.3229 31.4622 28.2029 31.5115 27.9841 31.3283C27.9841 31.3283 28.1675 31.5188 28.2029 31.5259C28.238 31.5331 28.0547 31.5117 28.0264 31.4622C28.0264 31.4622 28.1041 31.5754 28.1534 31.5894C28.2029 31.6036 28.1041 31.5754 28.1041 31.5754C28.1041 31.5754 28.0122 31.5612 27.97 31.5259C27.9276 31.4907 27.9558 31.6174 27.9558 31.6174C27.9558 31.6174 27.85 31.5892 27.8149 31.554C27.7795 31.5188 27.829 31.6318 27.829 31.6318L27.7374 31.6105L27.6739 31.6527C27.6739 31.6527 27.6668 31.6951 27.6242 31.6598C27.5822 31.6249 27.5044 31.6598 27.5044 31.6598C27.5044 31.6598 27.4478 31.7093 27.4198 31.6739C27.3918 31.6387 27.2849 31.8096 27.2849 31.8096L26.8407 30.7375" stroke="black" stroke-width="0.0666667" stroke-miterlimit="4.8"/>
        <path d="M26.8623 30.6387L27.4236 31.7071L27.4825 31.6762L26.9212 30.6077L26.8623 30.6387Z" fill="black"/>
        <path d="M26.9537 30.5598L27.914 31.6351L27.9639 31.5906L27.0035 30.5153L26.9537 30.5598Z" fill="black"/>
        <path d="M27.0372 30.519L28.1331 31.5403L28.1786 31.4915L27.0827 30.4702L27.0372 30.519Z" fill="black"/>
        <path d="M25.3866 28.1005C25.3866 28.1005 25.315 27.9724 25.2528 28.0205C25.1907 28.0685 25.1549 28.0773 25.1442 28.0739C25.1442 28.0739 25.2066 28.0773 25.2421 28.0436C25.2777 28.0096 25.3383 28.031 25.3866 28.1005Z" fill="black"/>
        <path d="M24.9997 28.0421C24.9997 28.0421 25.0389 28.1233 25.0395 28.1247C25.0355 28.125 24.9951 28.2559 24.9951 28.2559L25.0273 28.2658L25.0708 28.1232C25.0701 28.1109 25.03 28.0278 25.03 28.0278L24.9997 28.0421Z" fill="black"/>
        <path d="M25.3703 28.0807C25.3703 28.0807 25.317 28.1431 25.2439 28.1251C25.1711 28.1074 25.1711 28.1074 25.1711 28.1074C25.1711 28.1074 25.2331 28.1108 25.2743 28.1128C25.315 28.1145 25.3684 28.0932 25.3703 28.0807Z" fill="black"/>
        <path d="M25.3529 28.0935C25.3529 28.0935 25.2871 28.024 25.2425 28.0436C25.2425 28.0436 25.3209 28.0186 25.3654 28.086L25.3529 28.0935Z" fill="black"/>
        <path d="M25.3418 28.0807C25.3418 28.0807 25.2671 28.1323 25.1851 28.0755L25.18 28.0717L25.1907 28.0683C25.1908 28.0683 25.2939 28.1109 25.3418 28.0807Z" fill="black"/>
        <path d="M25.2781 28.0904C25.2904 28.0904 25.3003 28.0804 25.3003 28.0682C25.3003 28.0559 25.2904 28.0459 25.2781 28.0459C25.2658 28.0459 25.2559 28.0559 25.2559 28.0682C25.2559 28.0804 25.2658 28.0904 25.2781 28.0904Z" fill="black"/>
        <path d="M25.3384 30.0384C25.3384 30.0384 25.2805 30.1449 25.3108 30.2091C25.3414 30.2732 25.4787 30.3064 25.497 30.3919C25.5154 30.4776 25.5612 30.4774 25.6252 30.4654C25.6894 30.4531 25.7016 30.4501 25.7016 30.4501C25.7016 30.4501 25.4329 30.3064 25.3626 30.0748L25.3384 30.0384Z" fill="black"/>
        <path d="M34.0221 27.8686C34.0221 27.8686 34.5111 27.2238 34.9447 27.3932C35.3784 27.5626 35.6602 27.6442 35.6602 27.6442C35.6602 27.6442 35.6684 28.0784 35.4378 28.0784C35.2078 28.0784 34.9872 27.6447 34.7775 27.7736C34.5675 27.9023 34.395 28.0786 34.3814 28.1394C34.3679 28.2003 33.826 28.2139 34.0221 27.8686H34.0221Z" fill="#862633" stroke="black" stroke-width="0.032" stroke-miterlimit="4.8"/>
        <path d="M32.166 30.9778C32.166 30.9778 32.0308 31.1198 32.0918 31.1539C32.153 31.1876 32.2746 31.1468 32.2746 31.0996C32.2745 31.0519 32.1935 30.9643 32.166 30.9778Z" fill="#862633" stroke="black" stroke-width="0.052" stroke-miterlimit="4.8"/>
        <path d="M32.058 31.1131C32.058 31.1131 31.8075 30.9704 31.611 31.3092C31.4142 31.6478 31.2519 32.1966 31.1367 32.2712C31.0216 32.3457 32.2545 31.7293 32.2681 31.4719C32.2681 31.4719 32.3492 31.1399 32.2206 31.1465C32.0919 31.1536 32.0851 31.1672 32.058 31.1131H32.058Z" fill="#862633" stroke="black" stroke-width="0.052" stroke-miterlimit="4.8"/>
        <path d="M35.6609 27.6443C35.6609 27.6443 35.2695 27.7805 35.3371 28.0516L35.6609 27.6443Z" fill="#862633"/>
        <path d="M35.6609 27.6443C35.6609 27.6443 35.2695 27.7805 35.3371 28.0516" stroke="black" stroke-width="0.032" stroke-miterlimit="4.8"/>
        <path d="M32.654 28.4373C32.654 28.4373 32.6674 27.5092 33.4257 27.5498C33.5694 27.5632 33.5008 27.7326 33.5008 27.7326C33.5008 27.7326 33.6649 27.6177 33.7398 27.8003C33.7398 27.8003 33.979 27.6921 34.0062 27.9292C34.0062 27.9292 34.2658 27.8955 34.2315 28.1053C34.2315 28.1053 34.4091 28.0647 34.4025 28.2138C34.4025 28.2138 34.6073 28.1324 34.5867 28.3425C34.5867 28.3425 34.8121 28.1934 34.7782 28.4643C34.7782 28.4643 35.0104 28.3019 35.0921 28.5728C35.1741 28.8436 34.86 29.4194 34.5526 29.5684" fill="#FEDD00"/>
        <path d="M32.654 28.4373C32.654 28.4373 32.6674 27.5092 33.4257 27.5498C33.5694 27.5632 33.5008 27.7326 33.5008 27.7326C33.5008 27.7326 33.6649 27.6177 33.7398 27.8003C33.7398 27.8003 33.979 27.6921 34.0062 27.9292C34.0062 27.9292 34.2658 27.8955 34.2315 28.1053C34.2315 28.1053 34.4091 28.0647 34.4025 28.2138C34.4025 28.2138 34.6073 28.1324 34.5867 28.3425C34.5867 28.3425 34.8121 28.1934 34.7782 28.4643C34.7782 28.4643 35.0104 28.3019 35.0921 28.5728C35.1741 28.8436 34.86 29.4194 34.5526 29.5684" stroke="black" stroke-width="0.032" stroke-miterlimit="4.8"/>
        <path d="M32.2067 29.562C32.2067 29.562 32.0782 28.7014 32.5929 28.4308C32.5929 28.4308 32.688 28.4104 32.7419 28.5324C32.7419 28.5324 33.013 28.4173 33.0199 28.6472C33.0199 28.6472 33.1552 28.539 33.1891 28.6879C33.1891 28.6879 33.4804 28.6271 33.4262 28.8438C33.4262 28.8438 33.67 28.7761 33.6496 28.9858C33.6496 28.9858 33.8936 28.8979 33.8528 29.0808C33.8528 29.0808 34.1101 29.02 34.0493 29.2299C34.0493 29.2299 34.3678 29.1962 34.2729 29.4196C34.2729 29.4196 34.51 29.3587 34.4557 29.5416C34.4557 29.5416 34.7674 29.5959 34.625 29.7923C34.4828 29.9885 34.1237 30.2866 33.7718 30.4152" fill="#00AD50"/>
        <path d="M32.2067 29.562C32.2067 29.562 32.0782 28.7014 32.5929 28.4308C32.5929 28.4308 32.688 28.4104 32.7419 28.5324C32.7419 28.5324 33.013 28.4173 33.0199 28.6472C33.0199 28.6472 33.1552 28.539 33.1891 28.6879C33.1891 28.6879 33.4804 28.6271 33.4262 28.8438C33.4262 28.8438 33.67 28.7761 33.6496 28.9858C33.6496 28.9858 33.8936 28.8979 33.8528 29.0808C33.8528 29.0808 34.1101 29.02 34.0493 29.2299C34.0493 29.2299 34.3678 29.1962 34.2729 29.4196C34.2729 29.4196 34.51 29.3587 34.4557 29.5416C34.4557 29.5416 34.7674 29.5959 34.625 29.7923C34.4828 29.9885 34.1237 30.2866 33.7718 30.4152" stroke="black" stroke-width="0.032" stroke-miterlimit="4.8"/>
        <path d="M31.929 30.4288C31.929 30.4288 31.719 29.711 32.1189 29.5278C32.1189 29.5278 32.193 29.5074 32.2066 29.5821C32.2066 29.5821 32.2948 29.4668 32.3627 29.5686C32.3627 29.5686 32.5657 29.4737 32.6134 29.6227C32.6134 29.6227 32.7487 29.5074 32.8166 29.6766C32.8166 29.6766 32.9452 29.6227 32.9452 29.758C32.9452 29.758 33.1213 29.6835 33.1213 29.8461C33.1213 29.8461 33.2904 29.7784 33.2566 29.9612C33.2566 29.9612 33.5142 30.0018 33.4396 30.1237C33.4396 30.1237 33.6703 30.1845 33.5819 30.2796C33.5819 30.2796 33.8323 30.2525 33.6969 30.4218C33.6969 30.4218 33.8866 30.361 33.7784 30.5711C33.6698 30.781 33.3314 31.0112 33.0943 31.0383" fill="#00AD50"/>
        <path d="M31.929 30.4288C31.929 30.4288 31.719 29.711 32.1189 29.5278C32.1189 29.5278 32.193 29.5074 32.2066 29.5821C32.2066 29.5821 32.2948 29.4668 32.3627 29.5686C32.3627 29.5686 32.5657 29.4737 32.6134 29.6227C32.6134 29.6227 32.7487 29.5074 32.8166 29.6766C32.8166 29.6766 32.9452 29.6227 32.9452 29.758C32.9452 29.758 33.1213 29.6835 33.1213 29.8461C33.1213 29.8461 33.2904 29.7784 33.2566 29.9612C33.2566 29.9612 33.5142 30.0018 33.4396 30.1237C33.4396 30.1237 33.6703 30.1845 33.5819 30.2796C33.5819 30.2796 33.8323 30.2525 33.6969 30.4218C33.6969 30.4218 33.8866 30.361 33.7784 30.5711C33.6698 30.781 33.3314 31.0112 33.0943 31.0383" stroke="black" stroke-width="0.032" stroke-miterlimit="4.8"/>
        <path d="M32.1794 30.9974C32.1794 30.9974 31.7324 30.564 31.9426 30.4353C31.9426 30.4353 32.0371 30.4622 32.0711 30.5571C32.0711 30.5571 32.1794 30.4014 32.2406 30.5638C32.2406 30.5638 32.4032 30.5097 32.4032 30.6183L32.5317 30.7132C32.5317 30.7132 32.6809 30.6995 32.6539 30.7944C32.6539 30.7944 32.8165 30.774 32.8096 30.8621C32.8096 30.8621 32.952 30.8688 32.9385 30.9635C32.9385 30.9635 33.182 31.0041 33.0738 31.1263C33.0738 31.1263 32.647 31.2141 32.3491 31.0924C32.3491 31.0923 32.1929 31.038 32.1794 30.9974H32.1794Z" fill="#00AD50" stroke="black" stroke-width="0.032" stroke-miterlimit="4.8"/>
        <path d="M22.7933 15.5V27.4143C22.7933 31.3111 29.8342 33.625 29.8342 33.625C29.8342 33.625 36.875 31.311 36.875 27.4143V15.5H22.7933Z" stroke="black" stroke-width="0.28" stroke-miterlimit="4.8"/>
    </g>
    <defs>
        <clipPath id="clip0">
            <rect width="40" height="40" fill="white"/>
        </clipPath>
    </defs>
</svg>
