<svg width="40" height="40" viewBox="0 0 40 40" fill="none" xmlns="http://www.w3.org/2000/svg">
<mask id="mask0" mask-type="alpha" maskUnits="userSpaceOnUse" x="0" y="0" width="40" height="40">
<path d="M40 0H0V40H40V0Z" fill="white"/>
</mask>
<g mask="url(#mask0)">
<path d="M40 0H0V40H40V0Z" fill="#F42A40"/>
<path d="M40 0H0V20H40V0Z" fill="#F42A40"/>
<path fill-rule="evenodd" clip-rule="evenodd" d="M15.3148 6.17538C13.4048 6.75351 12.0005 8.69443 12.0005 10.9998C12.0005 13.3051 13.4048 15.246 15.3148 15.8242C14.8952 15.9385 14.4537 15.9995 13.998 15.9995C11.2379 15.9995 9.00049 13.7611 9.00049 10.9998C9.00049 8.23847 11.2379 6 13.998 6C14.4537 6 14.8952 6.06104 15.3148 6.17538Z" fill="white"/>
<path d="M40 20H0V40H40V20Z" fill="white"/>
<path fill-rule="evenodd" clip-rule="evenodd" d="M18 12.2L16.2367 13.4271L16.8588 11.3708L15.1469 10.0729L17.2947 10.0292L18 8L18.7054 10.0292L20.8532 10.0729L19.1413 11.3708L19.7634 13.4271L18 12.2Z" fill="white"/>
</g>
</svg>
