<svg width="40" height="40" viewBox="0 0 40 40" fill="none" xmlns="http://www.w3.org/2000/svg">
<path d="M40 0H0V40H40V0Z" fill="white"/>
<mask id="mask0" mask-type="alpha" maskUnits="userSpaceOnUse" x="0" y="0" width="22" height="22">
<path d="M22 0H0V22H22V0Z" fill="white"/>
</mask>
<g mask="url(#mask0)">
<path d="M22 0H0V22H22V0Z" fill="#00256A"/>
<path fill-rule="evenodd" clip-rule="evenodd" d="M3 4C2.44772 4 2 3.55228 2 3C2 2.44772 2.44772 2 3 2C3.55228 2 4 2.44772 4 3C4 3.55228 3.55228 4 3 4ZM7 4C6.44772 4 6 3.55228 6 3C6 2.44772 6.44772 2 7 2C7.55228 2 8 2.44772 8 3C8 3.55228 7.55228 4 7 4ZM11 4C10.4477 4 10 3.55228 10 3C10 2.44772 10.4477 2 11 2C11.5523 2 12 2.44772 12 3C12 3.55228 11.5523 4 11 4ZM15 4C14.4477 4 14 3.55228 14 3C14 2.44772 14.4477 2 15 2C15.5523 2 16 2.44772 16 3C16 3.55228 15.5523 4 15 4ZM19 4C18.4477 4 18 3.55228 18 3C18 2.44772 18.4477 2 19 2C19.5523 2 20 2.44772 20 3C20 3.55228 19.5523 4 19 4ZM3 12C2.44772 12 2 11.5523 2 11C2 10.4477 2.44772 10 3 10C3.55228 10 4 10.4477 4 11C4 11.5523 3.55228 12 3 12ZM7 12C6.44772 12 6 11.5523 6 11C6 10.4477 6.44772 10 7 10C7.55228 10 8 10.4477 8 11C8 11.5523 7.55228 12 7 12ZM11 12C10.4477 12 10 11.5523 10 11C10 10.4477 10.4477 10 11 10C11.5523 10 12 10.4477 12 11C12 11.5523 11.5523 12 11 12ZM15 12C14.4477 12 14 11.5523 14 11C14 10.4477 14.4477 10 15 10C15.5523 10 16 10.4477 16 11C16 11.5523 15.5523 12 15 12ZM19 12C18.4477 12 18 11.5523 18 11C18 10.4477 18.4477 10 19 10C19.5523 10 20 10.4477 20 11C20 11.5523 19.5523 12 19 12ZM3 20C2.44772 20 2 19.5523 2 19C2 18.4477 2.44772 18 3 18C3.55228 18 4 18.4477 4 19C4 19.5523 3.55228 20 3 20ZM7 20C6.44772 20 6 19.5523 6 19C6 18.4477 6.44772 18 7 18C7.55228 18 8 18.4477 8 19C8 19.5523 7.55228 20 7 20ZM11 20C10.4477 20 10 19.5523 10 19C10 18.4477 10.4477 18 11 18C11.5523 18 12 18.4477 12 19C12 19.5523 11.5523 20 11 20ZM15 20C14.4477 20 14 19.5523 14 19C14 18.4477 14.4477 18 15 18C15.5523 18 16 18.4477 16 19C16 19.5523 15.5523 20 15 20ZM19 20C18.4477 20 18 19.5523 18 19C18 18.4477 18.4477 18 19 18C19.5523 18 20 18.4477 20 19C20 19.5523 19.5523 20 19 20ZM5 8C4.44772 8 4 7.55228 4 7C4 6.44772 4.44772 6 5 6C5.55228 6 6 6.44772 6 7C6 7.55228 5.55228 8 5 8ZM5 16C4.44772 16 4 15.5523 4 15C4 14.4477 4.44772 14 5 14C5.55228 14 6 14.4477 6 15C6 15.5523 5.55228 16 5 16ZM9 8C8.44772 8 8 7.55228 8 7C8 6.44772 8.44772 6 9 6C9.55228 6 10 6.44772 10 7C10 7.55228 9.55228 8 9 8ZM9 16C8.44772 16 8 15.5523 8 15C8 14.4477 8.44772 14 9 14C9.55228 14 10 14.4477 10 15C10 15.5523 9.55228 16 9 16ZM13 8C12.4477 8 12 7.55228 12 7C12 6.44772 12.4477 6 13 6C13.5523 6 14 6.44772 14 7C14 7.55228 13.5523 8 13 8ZM13 16C12.4477 16 12 15.5523 12 15C12 14.4477 12.4477 14 13 14C13.5523 14 14 14.4477 14 15C14 15.5523 13.5523 16 13 16ZM17 8C16.4477 8 16 7.55228 16 7C16 6.44772 16.4477 6 17 6C17.5523 6 18 6.44772 18 7C18 7.55228 17.5523 8 17 8ZM17 16C16.4477 16 16 15.5523 16 15C16 14.4477 16.4477 14 17 14C17.5523 14 18 14.4477 18 15C18 15.5523 17.5523 16 17 16Z" fill="white"/>
</g>
<path fill-rule="evenodd" clip-rule="evenodd" d="M22 0H40V2H22V0ZM22 8H40V10H22V8ZM0 28H40V30H0V28ZM22 16H40V18H22V16ZM0 36H40V38H0V36ZM22 4H40V6H22V4ZM0 24H40V26H0V24ZM22 12H40V14H22V12ZM0 32H40V34H0V32ZM22 20H40V22H22V20Z" fill="#C1012B"/>
</svg>
