<svg width="40" height="40" viewBox="0 0 40 40" fill="none" xmlns="http://www.w3.org/2000/svg">
<mask id="mask0" mask-type="alpha" maskUnits="userSpaceOnUse" x="0" y="0" width="40" height="40">
<path d="M40 0H0V40H40V0Z" fill="white"/>
</mask>
<g mask="url(#mask0)">
<path d="M40 0H0V40H40V0Z" fill="#F42A40"/>
<path d="M40 0H0V20H40V0Z" fill="#F42A40"/>
<path fill-rule="evenodd" clip-rule="evenodd" d="M14.3148 5.17538C12.4048 5.75351 11.0005 7.69443 11.0005 9.99977C11.0005 12.3051 12.4048 14.246 14.3148 14.8242C13.8952 14.9385 13.4537 14.9995 12.998 14.9995C10.2379 14.9995 8.00049 12.7611 8.00049 9.99977C8.00049 7.23847 10.2379 5 12.998 5C13.4537 5 13.8952 5.06104 14.3148 5.17538Z" fill="white"/>
<path d="M40 20H0V40H40V20Z" fill="white"/>
<path fill-rule="evenodd" clip-rule="evenodd" d="M17 11.2L15.2367 12.4271L15.8588 10.3708L14.1469 9.07295L16.2947 9.02918L17 7L17.7054 9.02918L19.8532 9.07295L18.1413 10.3708L18.7634 12.4271L17 11.2Z" fill="white"/>
</g>
</svg>
